<svg id="visual" viewBox="0 0 900 600" width="900" height="600" xmlns="http://www.w3.org/2000/svg" xmlns:xlink="http://www.w3.org/1999/xlink" version="1.1"><rect x="0" y="0" width="900" height="600" fill="#e8e8e8"></rect><defs><linearGradient id="grad1_0" x1="33.3%" y1="0%" x2="100%" y2="100%"><stop offset="20%" stop-color="#e8e8e8" stop-opacity="1"></stop><stop offset="80%" stop-color="#e8e8e8" stop-opacity="1"></stop></linearGradient></defs><defs><linearGradient id="grad2_0" x1="0%" y1="0%" x2="66.7%" y2="100%"><stop offset="20%" stop-color="#e8e8e8" stop-opacity="1"></stop><stop offset="80%" stop-color="#e8e8e8" stop-opacity="1"></stop></linearGradient></defs><g transform="translate(900, 0)"><path d="M0 324.5C-32 296.2 -64.1 267.9 -106.4 256.8C-148.7 245.7 -201.2 251.8 -229.5 229.5C-257.7 207.1 -261.7 156.3 -273.5 113.3C-285.3 70.3 -304.9 35.1 -324.5 0L0 0Z" fill="#006af4"></path></g><g transform="translate(0, 600)"><path d="M0 -324.5C48.2 -325.7 96.5 -327 124.2 -299.8C151.9 -272.6 159.1 -217 184.6 -184.6C210 -152.1 253.6 -142.8 279.9 -116C306.3 -89.1 315.4 -44.5 324.5 0L0 0Z" fill="#006af4"></path></g></svg>