<svg width="140" height="40" viewBox="0 0 140 40" fill="none" xmlns="http://www.w3.org/2000/svg">
<path d="M27.152 32.536C27.1307 32.664 27.0027 32.696 26.768 32.632C26.5547 32.5893 26.3627 32.44 26.192 32.184C26.0213 31.7787 25.936 31.4053 25.936 31.064C25.936 30.7227 25.9467 30.2107 25.968 29.528C26.096 28.7813 26.2667 27.8107 26.48 26.616C26.7147 25.4 26.9813 24.0453 27.28 22.552C27.6 21.0373 27.9413 19.4587 28.304 17.816C28.56 16.9627 28.7627 16.184 28.912 15.48C29.0827 14.7547 29.2107 14.168 29.296 13.72C29.3813 13.272 29.424 13.048 29.424 13.048C29.424 12.984 29.36 13.016 29.232 13.144C29.1253 13.2507 29.0187 13.3787 28.912 13.528C28.8053 13.6773 28.7627 13.7947 28.784 13.88C28.784 13.88 28.7093 13.9867 28.56 14.2C28.4107 14.4133 28.2187 14.7013 27.984 15.064C27.7707 15.2773 27.5147 15.704 27.216 16.344C26.9173 16.984 26.5867 17.5813 26.224 18.136C25.8827 18.776 25.52 19.4693 25.136 20.216C24.752 20.9413 24.4107 21.5493 24.112 22.04C23.92 22.3173 23.728 22.6373 23.536 23C23.344 23.3627 23.2267 23.5973 23.184 23.704C23.0987 23.9387 22.9493 24.2267 22.736 24.568C22.5227 24.888 22.288 25.208 22.032 25.528C21.904 25.72 21.776 25.9227 21.648 26.136C21.52 26.328 21.4133 26.4987 21.328 26.648C21.264 26.776 21.232 26.84 21.232 26.84C21.232 26.904 21.1253 27.096 20.912 27.416C20.72 27.736 20.4747 28.088 20.176 28.472C19.8987 28.856 19.632 29.1867 19.376 29.464C18.6293 30.2533 18.032 30.7227 17.584 30.872C17.136 31 16.6347 30.808 16.08 30.296C15.8027 29.9547 15.6 29.5707 15.472 29.144C15.344 28.696 15.2907 28.152 15.312 27.512C15.3333 26.8507 15.408 26.0293 15.536 25.048C15.6853 24.3013 15.824 23.5547 15.952 22.808C16.08 22.04 16.1973 21.3253 16.304 20.664C16.432 19.9813 16.5387 19.4053 16.624 18.936C16.7307 18.4667 16.816 18.1573 16.88 18.008C16.9227 17.5813 16.912 17.3467 16.848 17.304C16.784 17.2613 16.656 17.3893 16.464 17.688C16.3787 17.8373 16.1547 18.2107 15.792 18.808C15.4293 19.384 15.0027 20.0987 14.512 20.952C14.0427 21.8053 13.5733 22.7333 13.104 23.736C12.2293 25.3573 11.504 26.7013 10.928 27.768C10.3733 28.8133 9.92533 29.6453 9.584 30.264C9.264 30.8827 9.02933 31.3413 8.88 31.64C8.73067 31.9387 8.624 32.1413 8.56 32.248C8.496 32.3547 8.44267 32.4293 8.4 32.472C8.208 32.472 8.00533 32.3867 7.792 32.216C7.6 32.0667 7.39733 31.8853 7.184 31.672C7.12 31.5227 7.088 31.3733 7.088 31.224C7.10933 31.0747 7.184 30.8613 7.312 30.584C7.44 30.2853 7.632 29.8373 7.888 29.24C8.16533 28.6853 8.42133 28.2053 8.656 27.8C8.89067 27.3733 9.072 27.1173 9.2 27.032C9.30667 26.8613 9.40267 26.6907 9.488 26.52C9.57333 26.3493 9.62667 26.1467 9.648 25.912C9.75467 25.784 9.91467 25.528 10.128 25.144C10.3627 24.7387 10.5973 24.3013 10.832 23.832C11.0027 23.5547 11.216 23.192 11.472 22.744C11.7493 22.296 12.0373 21.8053 12.336 21.272C12.6347 20.7173 12.9013 20.1947 13.136 19.704C14.1173 18.0187 14.9493 16.6 15.632 15.448C16.3147 14.2747 16.8267 13.528 17.168 13.208C17.2747 13.1013 17.3813 12.952 17.488 12.76C17.616 12.568 17.68 12.3973 17.68 12.248C17.68 11.8 17.7653 11.3947 17.936 11.032C18.128 10.648 18.32 10.4773 18.512 10.52C18.7253 10.52 18.9173 10.5413 19.088 10.584C19.2587 10.6267 19.44 10.7653 19.632 11C19.8027 11.256 19.952 11.512 20.08 11.768C20.208 12.024 20.1973 12.536 20.048 13.304C20.048 13.6027 20.016 13.944 19.952 14.328C19.888 14.6907 19.824 15.032 19.76 15.352C19.7173 15.6507 19.6853 15.8853 19.664 16.056C19.3867 16.888 19.1307 17.8267 18.896 18.872C18.6613 19.896 18.448 20.9413 18.256 22.008C18.064 23.0533 17.904 24.0347 17.776 24.952C17.648 25.848 17.5627 26.5947 17.52 27.192C17.4987 27.768 17.52 28.0987 17.584 28.184C17.7333 28.2693 17.8613 28.28 17.968 28.216C18.0747 28.152 18.256 27.8747 18.512 27.384C18.6613 27.128 18.864 26.8187 19.12 26.456C19.3973 26.072 19.664 25.72 19.92 25.4C20.0907 25.1013 20.3573 24.6533 20.72 24.056C21.0827 23.4587 21.5413 22.6907 22.096 21.752C22.672 20.8133 23.3547 19.672 24.144 18.328C24.9547 16.9627 25.872 15.384 26.896 13.592C27.3867 12.8453 27.8453 12.12 28.272 11.416C28.72 10.6907 29.0827 10.2213 29.36 10.008C29.6587 9.73067 29.968 9.66667 30.288 9.816C30.608 9.944 30.8853 10.2213 31.12 10.648C31.376 11.0747 31.5147 11.608 31.536 12.248C31.5573 12.5467 31.5147 13.0267 31.408 13.688C31.3227 14.3493 31.184 15.1067 30.992 15.96C30.8 16.792 30.5547 17.656 30.256 18.552C30.192 18.9147 30.0853 19.3733 29.936 19.928C29.808 20.4613 29.6587 21.016 29.488 21.592C29.3173 22.168 29.1467 22.712 28.976 23.224C28.8693 23.928 28.7413 24.6213 28.592 25.304C28.464 25.9867 28.4213 26.4453 28.464 26.68C28.272 27.0213 28.144 27.512 28.08 28.152C28.016 28.792 27.984 29.4533 27.984 30.136C27.8987 30.968 27.8347 31.5547 27.792 31.896C27.7493 32.2373 27.6747 32.3973 27.568 32.376C27.2907 32.2907 27.152 32.344 27.152 32.536ZM37.8633 29.88C37.4153 30.264 36.8926 30.488 36.2953 30.552C35.7193 30.616 35.1539 30.5307 34.5993 30.296C34.0446 30.04 33.5859 29.656 33.2233 29.144C32.8606 28.6747 32.6259 28.1413 32.5193 27.544C32.4126 26.9253 32.4019 26.1253 32.4873 25.144C32.5513 24.312 32.8179 23.48 33.2873 22.648C33.7566 21.7947 34.3219 21.0373 34.9833 20.376C35.6659 19.7147 36.3379 19.256 36.9993 19C37.3193 18.7867 37.5859 18.6907 37.7993 18.712C38.0339 18.712 38.3859 18.7333 38.8553 18.776C39.3459 18.84 39.7086 18.936 39.9433 19.064C40.1993 19.192 40.4019 19.3627 40.5513 19.576C40.8713 19.896 41.0846 20.216 41.1913 20.536C41.2979 20.8347 41.3513 21.1333 41.3513 21.432C41.2659 21.9013 40.9459 22.4773 40.3913 23.16C39.8579 23.8213 39.1539 24.3653 38.2793 24.792C37.8099 24.9413 37.2979 25.0053 36.7433 24.984C36.1886 24.9627 35.7299 24.824 35.3673 24.568C34.9619 24.3973 34.6953 24.4293 34.5673 24.664C34.4393 24.8773 34.3219 25.4107 34.2153 26.264C34.1299 27.0747 34.1939 27.672 34.4073 28.056C34.6206 28.4187 34.9086 28.632 35.2713 28.696C35.6979 28.7813 36.0286 28.8453 36.2633 28.888C36.5193 28.9093 36.8286 28.8133 37.1913 28.6C37.5326 28.3867 37.7459 28.2693 37.8313 28.248C37.9166 28.2053 37.9806 28.1627 38.0233 28.12C38.0873 28.056 38.2259 27.9173 38.4392 27.704C38.5886 27.5547 38.7059 27.448 38.7913 27.384C38.8766 27.2987 38.9726 27.256 39.0793 27.256C39.1859 27.256 39.2819 27.3093 39.3673 27.416C39.4526 27.5013 39.5379 27.5653 39.6233 27.608C39.8366 27.608 39.8793 27.736 39.7513 27.992C39.6446 28.248 39.4206 28.5573 39.0793 28.92C38.7379 29.2613 38.3326 29.5813 37.8633 29.88ZM37.8313 23.096C38.0659 22.9893 38.3113 22.84 38.5673 22.648C38.8233 22.4347 39.0366 22.2107 39.2073 21.976C39.3993 21.72 39.4953 21.5067 39.4953 21.336C39.4953 21.0373 39.3566 20.792 39.0793 20.6C38.8019 20.3867 38.3859 20.3547 37.8313 20.504C37.5966 20.568 37.3299 20.728 37.0312 20.984C36.7326 21.2187 36.4446 21.4853 36.1673 21.784C35.9113 22.0827 35.6979 22.3493 35.5273 22.584C35.3779 22.8187 35.3246 22.9573 35.3673 23C35.4313 23.1067 35.6126 23.192 35.9113 23.256C36.2099 23.2987 36.5406 23.3093 36.9033 23.288C37.2873 23.2667 37.5966 23.2027 37.8313 23.096ZM51.0215 31.608C50.7442 31.672 50.5095 31.6293 50.3175 31.48C50.1468 31.352 50.0188 31.16 49.9335 30.904C49.7628 30.4133 49.6348 29.88 49.5495 29.304C49.4855 28.7067 49.4748 28.184 49.5175 27.736L49.5815 27.064L48.3335 28.056C47.6082 28.696 46.9042 29.1547 46.2215 29.432C45.5602 29.7093 44.9735 29.848 44.4615 29.848C44.2268 29.8053 43.9922 29.72 43.7575 29.592C43.5228 29.464 43.3095 29.304 43.1175 29.112C42.9468 28.92 42.8082 28.7173 42.7015 28.504C42.5735 28.2053 42.5308 27.8 42.5735 27.288C42.6375 26.776 42.7655 26.2213 42.9575 25.624C43.1708 25.0053 43.4268 24.408 43.7255 23.832C44.0455 23.2347 44.4082 22.712 44.8135 22.264C45.5175 21.1973 46.2748 20.5467 47.0855 20.312C47.8962 20.0773 48.6962 20.1947 49.4855 20.664C50.0402 20.8987 50.3815 21.0053 50.5095 20.984C50.6588 20.9627 50.7868 20.7173 50.8935 20.248C50.9788 19.9067 51.0642 19.5653 51.1495 19.224C51.2348 18.8613 51.3735 18.3813 51.5655 17.784C52.0988 16.1627 52.5575 14.8933 52.9415 13.976C53.3468 13.0587 53.7095 12.2587 54.0295 11.576C54.2642 11.0853 54.4562 10.7867 54.6055 10.68C54.7762 10.552 54.9468 10.4987 55.1175 10.52C55.3522 10.52 55.5655 10.6053 55.7575 10.776C55.9495 10.9467 56.0988 11.1813 56.2055 11.48C56.2908 11.672 56.3228 11.8427 56.3015 11.992C56.3015 12.12 56.2375 12.3013 56.1095 12.536C55.8322 13.048 55.5015 13.7307 55.1175 14.584C54.7548 15.416 54.3815 16.3333 53.9975 17.336C53.6348 18.3387 53.2935 19.3307 52.9735 20.312C52.6535 21.2933 52.3868 22.1573 52.1735 22.904C52.0455 23.3733 51.9282 23.9707 51.8215 24.696C51.7362 25.4213 51.6615 26.168 51.5975 26.936C51.5335 27.6827 51.4908 28.3547 51.4695 28.952C51.4695 29.528 51.4908 29.9013 51.5335 30.072C51.6615 30.4987 51.7148 30.8187 51.6935 31.032C51.6935 31.2453 51.6402 31.384 51.5335 31.448C51.4268 31.5333 51.2562 31.5867 51.0215 31.608ZM45.6135 28.056C45.9122 27.992 46.2002 27.8747 46.4775 27.704C46.7762 27.5333 47.0855 27.3307 47.4055 27.096C48.0455 26.6053 48.6002 26.1573 49.0695 25.752C49.5388 25.3467 49.8482 24.728 49.9975 23.896C50.0402 23.4907 49.9975 23.1707 49.8695 22.936C49.7628 22.68 49.5815 22.4453 49.3255 22.232C49.0695 22.0613 48.7175 21.9973 48.2695 22.04C47.8428 22.0613 47.3948 22.2853 46.9255 22.712C46.4135 23.1813 45.9122 23.8107 45.4215 24.6C44.9522 25.3893 44.6002 26.36 44.3655 27.512C44.3228 27.7253 44.3868 27.896 44.5575 28.024C44.7282 28.152 45.0802 28.1627 45.6135 28.056ZM56.8 30.008C56.48 29.9653 56.2027 29.7413 55.968 29.336C55.7547 28.9093 55.6267 28.5253 55.584 28.184C55.6053 28.0133 55.6267 27.768 55.648 27.448C55.6907 27.128 55.7333 26.7973 55.776 26.456C55.8613 26.0507 55.9787 25.56 56.128 24.984C56.2773 24.3867 56.4267 23.7893 56.576 23.192C56.7467 22.5947 56.896 22.0827 57.024 21.656C57.152 21.2293 57.2373 20.9733 57.28 20.888C57.3867 20.7173 57.5573 20.6747 57.792 20.76C58.0267 20.8453 58.2187 20.9733 58.368 21.144C58.496 21.3147 58.5707 21.5173 58.592 21.752C58.6347 21.9867 58.6027 22.328 58.496 22.776C58.4107 23.224 58.24 23.8853 57.984 24.76C57.7493 25.6133 57.568 26.3067 57.44 26.84C57.3333 27.352 57.2907 27.896 57.312 28.472C57.2267 29.1973 57.1627 29.6453 57.12 29.816C57.0773 29.9653 56.9707 30.0293 56.8 30.008ZM60.48 17.24C60.3947 17.304 60.3093 17.336 60.224 17.336C60.16 17.3147 60.0427 17.2507 59.872 17.144C59.7227 17.1227 59.5307 17.0267 59.296 16.856C59.0827 16.664 58.8907 16.472 58.72 16.28C58.5707 16.0667 58.496 15.9387 58.496 15.896C58.4747 15.6827 58.4853 15.416 58.528 15.096C58.592 14.7547 58.7093 14.456 58.88 14.2C59.0507 13.9227 59.296 13.7733 59.616 13.752C59.7013 13.752 59.776 13.7627 59.84 13.784C59.904 13.8053 60.096 13.88 60.416 14.008C60.5867 14.328 60.7573 14.6907 60.928 15.096C61.0987 15.48 61.1733 15.864 61.152 16.248C61.1307 16.6107 60.9067 16.9413 60.48 17.24ZM62.4808 32.632C62.2888 32.5467 62.0648 32.376 61.8088 32.12C61.3608 31.8213 61.0194 31.48 60.7848 31.096C60.5501 30.7333 60.4114 30.2107 60.3688 29.528C60.3688 29.4213 60.4648 29.2507 60.6568 29.016C60.8488 28.76 61.0941 28.5573 61.3928 28.408C61.6914 28.2587 62.0008 28.3013 62.3208 28.536C62.1714 28.984 62.0754 29.3573 62.0328 29.656C62.0114 29.9547 62.0968 30.2 62.2888 30.392C62.4808 30.5627 62.8541 30.712 63.4088 30.84C63.7714 30.9253 64.1128 30.9573 64.4328 30.936C64.7741 30.9147 65.1794 30.8613 65.6488 30.776C66.1394 30.7333 66.5661 30.6907 66.9288 30.648C67.3128 30.6053 67.5794 30.5093 67.7288 30.36C68.3261 30.1253 68.8701 29.8267 69.3608 29.464C69.8728 29.1013 70.2141 28.7387 70.3848 28.376C70.6408 28.0347 70.7794 27.768 70.8008 27.576C70.8221 27.384 70.8328 27.0533 70.8328 26.584C70.8114 26.136 70.7794 25.7947 70.7368 25.56C70.7154 25.304 70.6408 25.0267 70.5128 24.728C70.3848 24.408 70.1608 23.928 69.8408 23.288C69.8408 23.16 69.6808 22.9147 69.3608 22.552C69.0408 22.1893 68.7314 21.8373 68.4328 21.496C68.2834 21.1547 68.0914 20.7707 67.8568 20.344C67.6434 19.9173 67.3874 19.608 67.0888 19.416C67.0034 19.288 66.9181 19.096 66.8328 18.84C66.7474 18.584 66.6728 18.4453 66.6088 18.424C66.6088 18.424 66.5768 18.3707 66.5128 18.264C66.4701 18.1573 66.4168 18.0293 66.3528 17.88C66.0541 17.24 66.0221 16.4613 66.2568 15.544C66.4914 14.6267 66.9608 13.7627 67.6648 12.952C67.8354 12.6747 68.0914 12.3547 68.4328 11.992C68.7954 11.608 69.1368 11.2773 69.4568 11C69.7981 10.7227 70.0114 10.584 70.0968 10.584C70.0968 10.584 70.1608 10.5627 70.2888 10.52C70.4381 10.456 70.6194 10.3493 70.8328 10.2C71.0888 10.136 71.3554 10.04 71.6328 9.912C71.9314 9.784 72.2194 9.72 72.4968 9.72C72.8808 9.592 73.1688 9.50667 73.3608 9.464C73.5528 9.4 73.7448 9.37867 73.9368 9.4C74.1288 9.4 74.4274 9.42133 74.8328 9.464C75.3874 9.61333 75.8248 9.82667 76.1448 10.104C76.4648 10.36 76.6888 10.7013 76.8168 11.128L77.0408 12.504L75.6968 13.496C75.4408 13.5813 75.1528 13.624 74.8328 13.624C74.5128 13.624 74.2354 13.6133 74.0008 13.592C73.7874 13.5493 73.6808 13.528 73.6808 13.528C73.5528 13.528 73.4994 13.464 73.5208 13.336C73.5421 13.208 73.6274 13.144 73.7768 13.144C73.8408 13.1013 73.9261 13.0053 74.0328 12.856C74.1608 12.7067 74.3314 12.536 74.5448 12.344C74.7794 11.9387 74.8328 11.6933 74.7048 11.608C74.5981 11.5013 74.1714 11.4907 73.4248 11.576C72.6994 11.5973 71.9848 11.7893 71.2808 12.152C70.5981 12.4933 70.0221 13.0053 69.5528 13.688C68.9981 14.1573 68.6034 14.6373 68.3688 15.128C68.1341 15.6187 68.0168 16.0453 68.0168 16.408C68.0594 16.5573 68.1234 16.7707 68.2088 17.048C68.2941 17.304 68.4114 17.5813 68.5608 17.88C69.4568 19.1387 70.1074 20.024 70.5128 20.536C70.9181 21.048 71.1208 21.3573 71.1208 21.464C71.1208 21.5493 71.1208 21.6027 71.1208 21.624C71.1421 21.624 71.2274 21.7627 71.3768 22.04C71.5474 22.3173 71.7074 22.616 71.8568 22.936C72.0061 23.2347 72.0808 23.4267 72.0808 23.512C72.0808 23.512 72.1021 23.576 72.1448 23.704C72.2088 23.8107 72.2834 23.9707 72.3688 24.184C72.4541 24.248 72.5288 24.4933 72.5928 24.92C72.6568 25.3467 72.7101 25.7947 72.7528 26.264C72.8168 26.7333 72.8488 27.096 72.8488 27.352C72.8488 27.608 72.7848 27.8853 72.6568 28.184C72.5288 28.4613 72.3688 28.7387 72.1768 29.016C71.9848 29.2933 71.7714 29.56 71.5368 29.816C71.3021 30.072 70.9394 30.392 70.4488 30.776C69.9581 31.1387 69.4354 31.48 68.8808 31.8C68.3474 32.1413 67.8461 32.3653 67.3767 32.472C67.0568 32.6 66.6408 32.696 66.1288 32.76C65.6381 32.8453 65.1261 32.8987 64.5928 32.92C64.0808 32.9413 63.6221 32.92 63.2168 32.856C62.8328 32.8133 62.5874 32.7387 62.4808 32.632ZM80.0913 30.264C79.6219 30.264 79.2699 30.2427 79.0353 30.2C78.8006 30.1573 78.6193 30.0933 78.4913 30.008C78.3633 29.9227 78.2139 29.8053 78.0433 29.656C77.9579 29.4853 77.8513 29.304 77.7233 29.112C77.5953 28.92 77.4886 28.7813 77.4033 28.696C77.3179 28.376 77.2753 27.96 77.2753 27.448C77.2966 26.936 77.3606 26.3813 77.4673 25.784C77.5953 25.1867 77.7659 24.632 77.9793 24.12C78.0646 23.9493 78.1393 23.7787 78.2033 23.608C78.2673 23.4373 78.2993 23.352 78.2993 23.352C78.2993 23.2453 78.4273 22.9893 78.6833 22.584C78.9606 22.1787 79.2593 21.752 79.5793 21.304C79.9206 20.856 80.1979 20.536 80.4113 20.344C80.5606 20.1733 80.7846 19.992 81.0833 19.8C81.4033 19.608 81.6806 19.4693 81.9153 19.384C82.1499 19.2987 82.3846 19.224 82.6193 19.16C82.8753 19.096 83.1633 19.064 83.4833 19.064C83.7819 19.064 84.0593 19.128 84.3153 19.256C84.5713 19.384 84.8166 19.608 85.0513 19.928C85.4353 20.312 85.6486 20.696 85.6913 21.08C85.7553 21.4427 85.7446 21.816 85.6593 22.2C85.5526 22.6267 85.4139 22.9573 85.2433 23.192C85.0726 23.4053 84.8806 23.5013 84.6673 23.48C84.4539 23.4587 84.2086 23.2987 83.9313 23C83.8459 22.8293 83.8033 22.6907 83.8033 22.584C83.8033 22.456 83.8459 22.2747 83.9313 22.04C84.0166 21.7413 84.0166 21.432 83.9313 21.112C83.8459 20.792 83.7073 20.632 83.5153 20.632C83.2379 20.632 82.9286 20.76 82.5873 21.016C82.2673 21.2507 81.9366 21.5493 81.5953 21.912C81.4459 22.0827 81.2326 22.3493 80.9553 22.712C80.6993 23.0533 80.4433 23.4373 80.1873 23.864C79.9313 24.2693 79.7179 24.664 79.5473 25.048C79.3126 25.752 79.1206 26.3173 78.9713 26.744C78.8433 27.1707 78.7793 27.384 78.7793 27.384C78.7793 27.4693 78.8006 27.5547 78.8433 27.64C78.9073 27.704 78.9393 27.7787 78.9393 27.864C78.9393 28.12 79.0886 28.3227 79.3873 28.472C79.6219 28.6213 79.8993 28.7067 80.2193 28.728C80.5393 28.728 80.9339 28.6213 81.4033 28.408C81.7446 28.2373 82.0646 28.0133 82.3633 27.736C82.6833 27.4587 83.0139 27.2133 83.3553 27C83.5899 26.8507 83.7713 26.7227 83.8993 26.616C84.0486 26.5093 84.1233 26.4987 84.1233 26.584C84.1233 26.6693 84.1553 26.712 84.2193 26.712C84.2833 26.712 84.3579 26.6693 84.4433 26.584C84.5713 26.4133 84.7099 26.3067 84.8593 26.264C85.0086 26.2 85.1366 26.1787 85.2433 26.2C85.3713 26.2 85.4353 26.232 85.4353 26.296C85.3926 26.488 85.4353 26.648 85.5633 26.776C85.5633 26.8613 85.5313 26.9787 85.4673 27.128C85.4246 27.256 85.3606 27.3627 85.2753 27.448C85.1686 27.5973 85.0086 27.768 84.7953 27.96C84.6033 28.152 84.4219 28.3227 84.2513 28.472C84.0806 28.6 83.9953 28.664 83.9953 28.664C83.9099 28.6427 83.8246 28.664 83.7393 28.728C83.6753 28.792 83.6006 28.8667 83.5153 28.952C83.3446 29.1013 83.1846 29.2187 83.0353 29.304C82.8859 29.368 82.7686 29.4 82.6833 29.4C82.5339 29.4853 82.4166 29.5387 82.3313 29.56C82.2673 29.5813 82.2353 29.6347 82.2353 29.72C82.0219 29.9333 81.7553 30.0827 81.4353 30.168C81.1366 30.232 80.6886 30.264 80.0913 30.264ZM89.55 30.264C89.4433 30.4773 89.2833 30.5413 89.07 30.456C88.878 30.3707 88.718 30.2853 88.59 30.2C88.4407 30.2 88.3127 30.1573 88.206 30.072C88.0993 29.9867 88.0247 29.8587 87.982 29.688C87.9393 29.56 87.9287 29.4107 87.95 29.24C87.9713 29.048 88.014 28.8347 88.078 28.6C88.1633 28.344 88.2487 28.0667 88.334 27.768C88.5047 27.064 88.622 26.552 88.686 26.232C88.75 25.912 88.814 25.6347 88.878 25.4C88.942 25.1653 89.0273 24.824 89.134 24.376C89.3047 23.9493 89.4433 23.5333 89.55 23.128C89.6567 22.7227 89.8167 22.3173 90.03 21.912C90.1793 21.3573 90.3607 20.8347 90.574 20.344C90.8087 19.832 91.0327 19.4053 91.246 19.064C91.2887 19 91.3633 18.9147 91.47 18.808C91.598 18.7013 91.7047 18.648 91.79 18.648C91.9607 18.4773 92.11 18.4133 92.238 18.456C92.3873 18.4773 92.5687 18.5733 92.782 18.744C93.038 19.0213 93.134 19.3413 93.07 19.704C93.0273 20.0667 92.7713 20.6 92.302 21.304C92.046 21.9653 91.8113 22.5413 91.598 23.032C91.3847 23.5013 91.2353 23.9493 91.15 24.376C91.3847 24.0347 91.6407 23.7253 91.918 23.448C92.2167 23.1493 92.462 22.904 92.654 22.712C93.1233 22.2427 93.5073 21.9013 93.806 21.688C94.126 21.4747 94.4993 21.2293 94.926 20.952C95.182 20.7813 95.4273 20.632 95.662 20.504C95.8967 20.3547 96.1527 20.248 96.43 20.184C96.7287 20.12 97.0487 20.12 97.39 20.184C97.6033 20.1627 97.774 20.2267 97.902 20.376C98.0513 20.5253 98.1687 20.728 98.254 20.984C98.3393 21.24 98.3927 21.5387 98.414 21.88C97.9233 21.7733 97.486 21.7947 97.102 21.944C96.718 22.072 96.3873 22.232 96.11 22.424C95.854 22.616 95.6513 22.7653 95.502 22.872C95.182 23.0853 94.7767 23.3733 94.286 23.736C93.7953 24.0773 93.3047 24.4933 92.814 24.984C92.43 25.4107 92.0993 25.7733 91.822 26.072C91.566 26.3707 91.3527 26.6373 91.182 26.872C91.0327 27.1067 90.9153 27.352 90.83 27.608C90.6167 28.0987 90.3927 28.632 90.158 29.208C89.9233 29.784 89.7207 30.136 89.55 30.264ZM100.089 29.432C100.004 29.432 99.8973 29.4107 99.7693 29.368C99.6626 29.304 99.6093 29.272 99.6093 29.272C99.6093 29.1867 99.5773 29.08 99.5133 28.952C99.4706 28.824 99.4493 28.7173 99.4493 28.632C99.2999 28.5467 99.2146 28.4613 99.1933 28.376C99.1719 28.2693 99.2039 28.0987 99.2893 27.864C99.4173 27.6507 99.5879 27.3093 99.8013 26.84C100.015 26.3493 100.239 25.8267 100.473 25.272C100.708 24.696 100.932 24.1307 101.145 23.576C101.359 23.0213 101.54 22.552 101.689 22.168C101.839 21.7627 101.924 21.5173 101.945 21.432C101.945 21.3467 101.977 21.24 102.041 21.112C102.105 20.984 102.18 20.8773 102.265 20.792C102.436 20.6427 102.617 20.632 102.809 20.76C103.001 20.8667 103.161 21.0587 103.289 21.336C103.439 21.592 103.513 21.88 103.513 22.2C103.513 22.3493 103.407 22.7333 103.193 23.352C102.98 23.9493 102.692 24.664 102.329 25.496C101.988 26.328 101.604 27.1707 101.177 28.024C100.857 28.6427 100.655 29.0373 100.569 29.208C100.484 29.3573 100.324 29.432 100.089 29.432ZM104.793 17.304C104.537 17.304 104.26 17.208 103.961 17.016C103.684 16.8027 103.439 16.5467 103.225 16.248C103.033 15.928 102.937 15.608 102.937 15.288C102.937 15.1813 103.001 15.032 103.129 14.84C103.257 14.648 103.385 14.456 103.513 14.264C103.641 14.072 103.705 13.9547 103.705 13.912C103.876 13.912 104.004 13.9227 104.089 13.944C104.196 13.944 104.324 13.9867 104.473 14.072C104.708 14.6053 104.996 15.0427 105.337 15.384C105.7 15.7253 105.881 16.0133 105.881 16.248C105.881 16.7173 105.839 17.016 105.753 17.144C105.668 17.2507 105.348 17.304 104.793 17.304ZM104.202 38.168C104.117 38.168 104.01 38.168 103.882 38.168C103.754 38.1893 103.637 38.104 103.53 37.912C103.445 37.8053 103.391 37.6453 103.37 37.432C103.37 37.2187 103.423 36.8347 103.53 36.28C103.637 35.9173 103.722 35.5547 103.786 35.192C103.85 34.8507 103.882 34.5947 103.882 34.424C103.882 34.3387 103.903 34.168 103.946 33.912C104.01 33.6773 104.042 33.5067 104.042 33.4C104.149 33.2293 104.234 32.9947 104.298 32.696C104.362 32.3973 104.394 32.1307 104.394 31.896C104.394 31.64 104.522 31.4053 104.778 31.192C104.778 31.0213 104.81 30.808 104.874 30.552C104.959 30.296 105.002 30.1253 105.002 30.04C105.066 29.7413 105.205 29.2187 105.418 28.472C105.653 27.704 105.93 26.84 106.25 25.88C106.591 24.92 106.922 23.9813 107.242 23.064C107.562 22.1467 107.85 21.368 108.106 20.728C108.362 20.1307 108.533 19.6187 108.618 19.192C108.725 18.744 108.778 18.4133 108.778 18.2C108.778 18.1147 108.799 18.0507 108.842 18.008C108.885 17.944 108.981 17.8267 109.13 17.656C109.343 17.4427 109.525 17.3787 109.674 17.464C109.845 17.5493 110.047 17.6773 110.282 17.848C110.453 18.1253 110.57 18.36 110.634 18.552C110.719 18.744 110.719 19.0747 110.634 19.544C110.634 19.864 110.581 20.1413 110.474 20.376C110.367 20.6107 110.271 20.792 110.186 20.92C110.101 21.0267 110.079 21.0693 110.122 21.048C110.997 20.6427 111.765 20.4293 112.426 20.408C113.109 20.3653 113.674 20.4827 114.122 20.76C114.591 21.016 114.943 21.3787 115.178 21.848C115.413 22.3173 115.53 22.8613 115.53 23.48C115.53 23.736 115.477 24.0453 115.37 24.408C115.263 24.7493 115.125 25.0693 114.954 25.368C114.805 25.6453 114.666 25.848 114.538 25.976C114.453 25.976 114.367 26.0507 114.282 26.2C114.197 26.328 114.111 26.4773 114.026 26.648C113.855 26.8613 113.578 27.1067 113.194 27.384C112.831 27.64 112.469 27.8533 112.106 28.024C111.743 28.1733 111.477 28.216 111.306 28.152C111.306 28.152 111.274 28.1627 111.21 28.184C111.167 28.184 111.146 28.2373 111.146 28.344C111.146 28.3867 110.975 28.4827 110.634 28.632C110.293 28.76 109.898 28.888 109.45 29.016C109.002 29.1227 108.607 29.176 108.266 29.176C107.818 29.176 107.498 29.0907 107.306 28.92C107.263 28.9627 107.21 29.0267 107.146 29.112C107.103 29.1973 107.082 29.272 107.082 29.336C107.082 29.464 107.029 29.7093 106.922 30.072C106.837 30.4133 106.73 30.744 106.602 31.064C106.474 31.384 106.357 31.544 106.25 31.544C106.25 31.544 106.229 31.576 106.186 31.64C106.143 31.704 106.165 31.7893 106.25 31.896C106.25 31.896 106.239 32.0133 106.218 32.248C106.218 32.504 106.165 32.7173 106.058 32.888C106.058 33.0587 106.026 33.3147 105.962 33.656C105.898 33.9973 105.823 34.2533 105.738 34.424C105.738 34.68 105.695 34.9253 105.61 35.16C105.546 35.416 105.471 35.544 105.386 35.544C105.301 35.5653 105.247 35.6933 105.226 35.928C105.205 36.184 105.194 36.3653 105.194 36.472C105.173 37.0053 105.066 37.4213 104.874 37.72C104.682 38.0187 104.458 38.168 104.202 38.168ZM108.074 27.48C108.245 27.48 108.597 27.4053 109.13 27.256C109.663 27.1067 110.207 26.9253 110.762 26.712C111.338 26.4773 111.765 26.2427 112.042 26.008C112.597 25.5173 113.023 24.9627 113.322 24.344C113.642 23.704 113.621 23.096 113.258 22.52C113.087 22.2213 112.778 22.104 112.33 22.168C111.882 22.2107 111.391 22.3813 110.858 22.68C110.325 22.9787 109.823 23.352 109.354 23.8C109.098 24.0773 108.863 24.4187 108.65 24.824C108.437 25.2293 108.255 25.6347 108.106 26.04C107.978 26.4453 107.903 26.7867 107.882 27.064C107.861 27.3413 107.925 27.48 108.074 27.48ZM121.544 30.936C121.245 30.8507 121 30.7547 120.808 30.648C120.616 30.52 120.36 30.3173 120.04 30.04C119.784 29.6987 119.581 29.3787 119.432 29.08C119.304 28.7813 119.218 28.44 119.176 28.056C119.133 27.6507 119.112 27.1387 119.112 26.52C119.112 26.264 119.154 25.88 119.24 25.368C119.346 24.856 119.464 24.3227 119.592 23.768C119.741 23.192 119.869 22.68 119.976 22.232C120.104 21.784 120.178 21.496 120.2 21.368C120.264 21.0907 120.157 20.9307 119.88 20.888C119.602 20.8453 119.293 20.8347 118.952 20.856C118.632 20.856 118.418 20.824 118.312 20.76C118.226 20.7387 118.184 20.7067 118.184 20.664C118.184 20.6 118.184 20.568 118.184 20.568C118.184 20.4827 118.173 20.4293 118.152 20.408C118.152 20.3653 118.12 20.2907 118.056 20.184C118.013 20.0987 118.034 19.9813 118.12 19.832C118.226 19.6613 118.397 19.5547 118.632 19.512C118.824 19.4693 119.08 19.4373 119.4 19.416C119.741 19.3733 120.082 19.2987 120.424 19.192C120.765 19.064 121.042 18.872 121.256 18.616C121.448 18.1467 121.672 17.624 121.928 17.048C122.184 16.472 122.429 15.96 122.664 15.512C122.92 15.0427 123.09 14.7547 123.176 14.648C123.538 14.456 123.805 14.3813 123.976 14.424C124.146 14.4453 124.338 14.6267 124.552 14.968C124.658 15.1173 124.733 15.2347 124.776 15.32C124.84 15.4053 124.85 15.5333 124.808 15.704C124.765 15.8747 124.648 16.1413 124.456 16.504C124.285 16.8667 124.018 17.3893 123.656 18.072C123.549 18.2853 123.453 18.4773 123.368 18.648C123.282 18.7973 123.24 18.872 123.24 18.872C123.325 18.8933 123.453 18.904 123.624 18.904C123.794 18.904 124.008 18.8933 124.264 18.872C124.498 18.8293 124.797 18.7973 125.16 18.776C125.522 18.7333 125.81 18.7333 126.024 18.776C126.514 18.776 126.877 18.872 127.112 19.064C127.346 19.2347 127.474 19.5333 127.496 19.96C127.538 20.1947 127.485 20.3333 127.336 20.376C127.208 20.4187 126.856 20.44 126.28 20.44C126.088 20.44 125.789 20.4507 125.384 20.472C124.978 20.4933 124.552 20.5147 124.104 20.536C123.677 20.5573 123.304 20.5893 122.984 20.632C122.685 20.6533 122.536 20.6853 122.536 20.728C122.472 20.7707 122.365 20.9733 122.216 21.336C122.088 21.6987 121.949 22.1147 121.8 22.584C121.672 23.032 121.554 23.4373 121.448 23.8C121.298 24.5253 121.181 25.2507 121.096 25.976C121.032 26.7013 121.021 27.3307 121.064 27.864C121.106 28.3973 121.224 28.7707 121.416 28.984C121.608 29.176 121.981 29.2187 122.536 29.112C123.09 28.984 123.538 28.7813 123.88 28.504C124.264 28.184 124.573 28.024 124.808 28.024C125.064 28.024 125.202 28.1413 125.224 28.376C125.266 28.5893 125.149 28.8987 124.872 29.304C124.616 29.688 124.296 30.0293 123.912 30.328C123.528 30.6053 123.122 30.808 122.696 30.936C122.29 31.0427 121.906 31.0427 121.544 30.936Z" fill="white"/>
<ellipse cx="134" cy="6.5" rx="4" ry="3.5" fill="#006AF4"/>
</svg>
