    <svg xmlns="http://www.w3.org/2000/svg" viewBox="0 100 600 100">
      <path fill-rule="evenodd" fill="rgb(0%, 0%, 0%)" fill-opacity="1" d="M 102.695312 185.789062 C 105.546875 184.519531 108.394531 182.191406 111.253906 182.171875 C 128.851562 182.050781 146.46875 183.191406 164.035156 182.539062 C 208.308594 180.898438 252.558594 178.558594 296.808594 176.480469 C 318.546875 175.46875 340.277344 174.519531 362.007812 173.421875 C 404.394531 171.28125 446.753906 168.78125 489.15625 167.03125 C 504.855469 166.378906 520.617188 167.628906 536.355469 167.609375 C 544.828125 167.609375 553.304688 166.660156 561.785156 166.300781 C 592.25 165 622.714844 163.808594 653.179688 162.511719 C 660.417969 162.199219 667.667969 161.109375 674.871094 161.351562 C 680.246094 161.53125 685.558594 163.300781 690.898438 164.359375 C 690.757812 165.699219 690.625 167.050781 690.488281 168.398438 C 686.394531 169 682.324219 169.980469 678.214844 170.148438 C 635.726562 171.859375 593.238281 173.671875 550.734375 174.949219 C 527.808594 175.640625 504.824219 174.691406 481.914062 175.660156 C 433.445312 177.710938 385.011719 180.640625 336.546875 182.988281 C 294.367188 185.03125 252.179688 187.050781 209.96875 188.558594 C 178.484375 189.679688 146.96875 190 115.460938 190.519531 C 111.53125 190.589844 107.585938 189.679688 103.652344 189.230469 C 103.335938 188.089844 103.019531 186.941406 102.695312 185.789062 Z M 102.695312 185.789062 "/>
    </svg>