<?xml version="1.0" encoding="UTF-8"?>
<svg xmlns="http://www.w3.org/2000/svg" xmlns:xlink="http://www.w3.org/1999/xlink" width="3300" height="2250" viewBox="0 0 3300 2250">
<rect x="-330" y="-225" width="3960" height="2700" fill="rgb(100%, 100%, 100%)" fill-opacity="1"/>
<path fill-rule="evenodd" fill="rgb(0%, 0%, 0%)" fill-opacity="1" d="M 3005.839844 2058.574219 C 3002.949219 2060.335938 3000.859375 2062.691406 2998.648438 2062.792969 C 2974.878906 2063.894531 2951.058594 2066.042969 2927.339844 2065.148438 C 2885.140625 2063.5625 2842.949219 2060.730469 2800.871094 2057.214844 C 2724.519531 2050.828125 2648.339844 2041.894531 2571.898438 2037.167969 C 2509.640625 2033.324219 2447.109375 2033.585938 2384.679688 2032.890625 C 2289.390625 2031.832031 2194.101562 2031.167969 2098.800781 2031.042969 C 2038.941406 2030.953125 1979.078125 2032.511719 1919.210938 2032.652344 C 1878.03125 2032.75 1836.859375 2031.554688 1795.679688 2031.199219 C 1767.359375 2030.953125 1739.03125 2031.152344 1710.699219 2031.152344 C 1710.589844 2031.949219 1710.46875 2032.742188 1710.351562 2033.53125 C 1721.679688 2035.246094 1732.96875 2037.363281 1744.359375 2038.597656 C 1828.679688 2047.671875 1913.339844 2043.214844 1997.839844 2044.875 C 2041.671875 2045.726562 2085.519531 2046.328125 2129.328125 2045.6875 C 2180.089844 2044.953125 2230.808594 2042.519531 2281.570312 2041.238281 C 2310.921875 2040.503906 2340.289062 2040.203125 2369.648438 2040.425781 C 2438.988281 2040.960938 2508.398438 2040.480469 2577.671875 2043.089844 C 2672 2046.636719 2765.960938 2055.640625 2859.421875 2069.277344 C 2895.28125 2074.507812 2931.03125 2080.582031 2966.851562 2086.105469 C 2977.101562 2087.679688 2987.46875 2088.367188 2997.679688 2090.089844 C 3002.390625 2090.878906 3006.851562 2093.164062 3011.421875 2094.777344 C 3011.460938 2095.898438 3011.5 2097.023438 3011.539062 2098.152344 C 3008.449219 2099.21875 3005.320312 2101.3125 3002.289062 2101.179688 C 2983.058594 2100.285156 2963.851562 2099.234375 2944.679688 2097.589844 C 2899.808594 2093.757812 2855.019531 2088.953125 2810.121094 2085.664062 C 2765.421875 2082.398438 2720.640625 2080.152344 2675.859375 2078.089844 C 2615.671875 2075.316406 2555.46875 2072.484375 2495.21875 2070.890625 C 2419.910156 2068.890625 2344.550781 2068.160156 2269.210938 2066.816406 C 2208.628906 2065.734375 2148.058594 2063.695312 2087.480469 2063.65625 C 2021.679688 2063.617188 1955.871094 2065.261719 1890.058594 2066.4375 C 1856.449219 2067.039062 1822.851562 2068.042969 1789.261719 2069.222656 C 1766.960938 2070.011719 1744.679688 2071.53125 1722.390625 2072.421875 C 1719.101562 2072.566406 1715.75 2071.09375 1712.429688 2070.367188 C 1712.519531 2069.085938 1712.589844 2067.8125 1712.679688 2066.535156 C 1782.160156 2064.375 1851.640625 2062.21875 1921.121094 2060.058594 C 1793.210938 2053.246094 1665.421875 2061.308594 1537.601562 2062.3125 C 1537.5 2061.101562 1537.390625 2059.886719 1537.28125 2058.675781 C 1545.941406 2057.742188 1554.589844 2056.25 1563.28125 2055.972656 C 1594.179688 2054.976562 1625.101562 2054.171875 1656.011719 2053.710938 C 1709.640625 2052.90625 1763.28125 2052.414062 1816.910156 2051.757812 C 1818.691406 2051.742188 1820.449219 2051.4375 1822.191406 2050.480469 C 1763.738281 2048.722656 1705.28125 2046.984375 1646.03125 2045.214844 C 1647.109375 2035.4375 1651.609375 2037.324219 1656.238281 2037.769531 C 1676.011719 2039.648438 1695.808594 2041.113281 1715.609375 2042.722656 C 1715.71875 2041.746094 1715.828125 2040.773438 1715.941406 2039.792969 C 1697.320312 2037.292969 1678.710938 2034.765625 1660.078125 2032.296875 C 1654.769531 2031.585938 1649.371094 2031.367188 1644.160156 2030.210938 C 1641.941406 2029.714844 1640.128906 2027.398438 1638.128906 2025.902344 C 1640.441406 2025.082031 1642.699219 2024.039062 1645.070312 2023.484375 C 1646.539062 2023.144531 1648.179688 2023.546875 1650.449219 2023.652344 C 1649.878906 2021.609375 1649.421875 2020.023438 1648.878906 2018.148438 C 1651.730469 2018.148438 1655.25 2017.042969 1657.160156 2018.324219 C 1672.339844 2028.511719 1689.328125 2025.492188 1705.871094 2025.601562 C 1795.429688 2026.179688 1884.980469 2027.089844 1974.539062 2027.089844 C 2076.691406 2027.089844 2178.859375 2025.910156 2281.011719 2025.902344 C 2330.460938 2025.902344 2379.910156 2027.421875 2429.359375 2028.234375 C 2434.628906 2028.328125 2439.898438 2028.25 2445.210938 2027.367188 C 2347.980469 2020.90625 2250.640625 2016.648438 2153.210938 2014.226562 C 2055.570312 2011.808594 1957.96875 2008.140625 1860.308594 2006.433594 C 1763.058594 2004.71875 1665.789062 2004.734375 1568.53125 2003.992188 C 1568.359375 2002.65625 1568.191406 2001.320312 1568.019531 1999.984375 C 1570.539062 1999.289062 1573.058594 1997.953125 1575.570312 1997.976562 C 1609.789062 1998.253906 1644.011719 1998.925781 1678.21875 1999.066406 C 1708.820312 1999.203125 1739.410156 1998.789062 1770 1998.617188 C 1773.128906 1998.601562 1776.269531 1998.609375 1779.390625 1997.761719 C 1725.570312 1996.640625 1671.761719 1995.527344 1617.941406 1994.402344 C 1617.769531 1992.902344 1617.601562 1991.390625 1617.429688 1989.890625 C 1620.429688 1989.195312 1623.441406 1987.851562 1626.421875 1987.914062 C 1639.289062 1988.214844 1652.160156 1989.136719 1665.039062 1989.4375 C 1699.761719 1990.261719 1734.488281 1990.425781 1769.191406 1991.667969 C 1826.53125 1993.714844 1883.859375 1996.363281 1941.179688 1998.8125 C 2020.628906 2002.222656 2100.058594 2005.929688 2179.511719 2009.035156 C 2257.699219 2012.09375 2335.898438 2014.640625 2414.101562 2017.230469 C 2467.949219 2019.019531 2521.859375 2019.644531 2575.660156 2022.316406 C 2637.449219 2025.382812 2699.128906 2030.628906 2760.929688 2033.964844 C 2799.378906 2036.046875 2837.941406 2036.265625 2876.449219 2037.421875 C 2905.378906 2038.289062 2934.328125 2039.089844 2963.25 2040.519531 C 2967.199219 2040.707031 2970.851562 2044.644531 2974.871094 2046.320312 C 2984.410156 2050.273438 2994.089844 2053.941406 3005.839844 2058.574219 Z M 2210.789062 2049.601562 C 2438.871094 2059.671875 2666.949219 2069.75 2889.609375 2079.585938 C 2779.820312 2061.5 2663.730469 2050.753906 2547.019531 2046.859375 C 2434.941406 2043.128906 2322.859375 2044.820312 2210.789062 2049.601562 Z M 2954.460938 2058.691406 C 2861.878906 2044.179688 2768.640625 2038.691406 2675 2038.859375 C 2768.058594 2046.898438 2860.558594 2062.4375 2954.460938 2058.691406 Z M 1935.660156 2050.097656 C 1935.628906 2051.324219 1935.609375 2052.550781 1935.589844 2053.773438 C 2063.339844 2056.460938 2191.101562 2059.152344 2318.859375 2061.839844 C 2318.878906 2060.550781 2318.898438 2059.253906 2318.929688 2057.964844 C 2191.179688 2055.339844 2063.421875 2052.714844 1935.660156 2050.097656 Z M 2533.421875 2025.839844 C 2533.511719 2026.9375 2533.589844 2028.03125 2533.679688 2029.128906 C 2558.011719 2029.128906 2582.339844 2029.128906 2606.660156 2029.128906 C 2606.660156 2029.050781 2606.671875 2028.96875 2606.679688 2028.898438 C 2582.25 2027.878906 2557.839844 2026.859375 2533.421875 2025.839844 Z M 2976.910156 2053.023438 C 2977.019531 2051.871094 2977.121094 2050.730469 2977.230469 2049.578125 C 2954.609375 2047.710938 2931.988281 2045.847656 2909.378906 2043.988281 C 2909.289062 2044.804688 2909.210938 2045.617188 2909.140625 2046.441406 C 2931.71875 2048.636719 2954.320312 2050.835938 2976.910156 2053.023438 Z M 2976.910156 2053.023438 "/>
<path fill-rule="evenodd" fill="rgb(0%, 0%, 0%)" fill-opacity="1" d="M 2667.589844 1778.761719 C 2663.589844 1779.410156 2659.519531 1780.878906 2655.589844 1780.589844 C 2626.671875 1778.46875 2597.679688 1776.898438 2568.898438 1773.402344 C 2541.238281 1770.042969 2513.371094 1770.722656 2485.738281 1767.363281 C 2465.550781 1764.914062 2445.339844 1762.304688 2425.058594 1761.085938 C 2384.449219 1758.636719 2343.820312 1756.460938 2303.160156 1755.339844 C 2237.679688 1753.546875 2172.171875 1753.03125 2106.679688 1751.363281 C 2026.691406 1749.324219 1946.710938 1746.773438 1866.730469 1744.210938 C 1816.128906 1742.589844 1765.5 1741.015625 1714.929688 1738.535156 C 1678.53125 1736.742188 1642.121094 1734.203125 1605.859375 1730.542969 C 1593.070312 1729.253906 1580.859375 1722.851562 1568.089844 1720.257812 C 1558.058594 1718.210938 1547.570312 1718.1875 1537.269531 1717.714844 C 1509.980469 1716.449219 1482.679688 1715.445312 1455.378906 1714.25 C 1454.011719 1714.1875 1452.671875 1713.3125 1451.320312 1712.804688 C 1451.210938 1711.824219 1451.109375 1710.84375 1451 1709.863281 C 1454.398438 1709.398438 1457.820312 1708.425781 1461.199219 1708.550781 C 1493.339844 1709.746094 1525.480469 1711.152344 1557.628906 1712.441406 C 1559.980469 1712.535156 1562.359375 1712.226562 1564.75 1709.945312 C 1519.371094 1708.402344 1473.988281 1706.859375 1428.601562 1705.320312 C 1428.628906 1703.722656 1428.671875 1702.125 1428.699219 1700.527344 C 1463.339844 1698.949219 1497.988281 1703.289062 1532.628906 1703.367188 C 1568.210938 1703.453125 1603.800781 1705.40625 1639.390625 1706.496094 C 1674.660156 1707.597656 1709.941406 1708.640625 1745.25 1709.34375 C 1689.089844 1701.660156 1631.628906 1705.097656 1576.359375 1689.824219 C 1575.921875 1689.699219 1575.890625 1688.15625 1575.449219 1686.441406 C 1577.738281 1686.214844 1579.769531 1685.621094 1581.699219 1685.867188 C 1615.660156 1690.078125 1649.519531 1695.707031 1683.609375 1698.394531 C 1745.390625 1703.273438 1807.289062 1707.34375 1869.199219 1709.992188 C 1921.789062 1712.234375 1974.480469 1711.816406 2027.128906 1712.9375 C 2090.210938 1714.285156 2153.289062 1715.839844 2216.359375 1717.636719 C 2249.769531 1718.582031 2283.21875 1719.445312 2316.558594 1721.753906 C 2370.648438 1725.507812 2424.691406 1730.179688 2478.71875 1734.929688 C 2518.929688 1738.464844 2559.148438 1742.1875 2599.238281 1746.8125 C 2638.96875 1751.386719 2678.5 1757.601562 2718.21875 1762.328125 C 2748.550781 1765.925781 2779.019531 1768.273438 2809.421875 1771.261719 C 2840.570312 1774.328125 2871.71875 1777.472656 2902.851562 1780.699219 C 2904.371094 1780.855469 2905.78125 1782.167969 2907.269531 1785.164062 C 2903.929688 1785.804688 2900.511719 1787.265625 2897.238281 1786.976562 C 2857.140625 1783.386719 2817.058594 1779.511719 2776.96875 1775.828125 C 2772.601562 1775.425781 2768.179688 1775.773438 2763.070312 1775.773438 C 2770.058594 1776.878906 2776.441406 1777.773438 2782.769531 1778.953125 C 2784.808594 1779.339844 2788.230469 1780.230469 2788.398438 1781.308594 C 2789.910156 1790.933594 2796.820312 1787.078125 2802.210938 1787.386719 C 2811.140625 1787.882812 2820.058594 1788.667969 2828.980469 1789.339844 C 2829.148438 1790.738281 2829.308594 1792.136719 2829.480469 1793.535156 C 2826.429688 1794.429688 2823.269531 1796.359375 2820.339844 1796.066406 C 2796.839844 1793.757812 2773.410156 1790.753906 2749.910156 1788.507812 C 2725.769531 1786.199219 2701.558594 1784.5625 2677.390625 1782.46875 C 2674.109375 1782.191406 2670.910156 1780.96875 2667.679688 1780.167969 C 2667.648438 1779.71875 2667.621094 1779.234375 2667.589844 1778.761719 Z M 1917.210938 1717.792969 C 2162.828125 1732.597656 2408.460938 1747.402344 2654.089844 1762.21875 C 2409.800781 1724.867188 2163.71875 1717.652344 1917.210938 1717.792969 Z M 1588.339844 1717.082031 C 1588.21875 1718.054688 1588.109375 1719.027344 1588 1720 C 1605.441406 1729.746094 2122.71875 1752.960938 2154.539062 1745.160156 C 1965.199219 1735.769531 1776.769531 1726.433594 1588.339844 1717.082031 Z M 2310.941406 1748.242188 C 2311.058594 1747.445312 2311.179688 1746.644531 2311.308594 1745.839844 C 2064.789062 1732.226562 1818.390625 1716.425781 1571.46875 1710.851562 C 1817.96875 1723.316406 2064.449219 1735.785156 2310.941406 1748.242188 Z M 2744.050781 1774.613281 C 2744.039062 1774.050781 2744.011719 1773.480469 2743.988281 1772.921875 C 2727.589844 1771.609375 2711.179688 1770.289062 2694.769531 1768.96875 C 2694.71875 1769.773438 2694.660156 1770.582031 2694.609375 1771.394531 C 2711.089844 1772.46875 2727.570312 1773.535156 2744.050781 1774.613281 Z M 2744.050781 1774.613281 "/>
<path fill-rule="evenodd" fill="rgb(0%, 0%, 0%)" fill-opacity="1" d="M 714.371094 1668.925781 C 701.808594 1668.925781 689.25 1668.726562 676.6875 1668.964844 C 633.542969 1669.78125 590.40625 1670.785156 547.273438 1671.644531 C 503.242188 1672.523438 459.1875 1672.832031 415.183594 1674.261719 C 348.128906 1676.417969 281.089844 1679.296875 214.039062 1681.953125 C 188.089844 1682.988281 162.40625 1680.726562 136.945312 1675.96875 C 135.039062 1675.605469 133.585938 1672.855469 131.917969 1671.21875 C 134.289062 1670.183594 137.03125 1667.796875 138.984375 1668.332031 C 168.160156 1676.207031 198.015625 1676.324219 227.746094 1675.367188 C 268.296875 1674.046875 308.769531 1670.046875 349.3125 1669.179688 C 444.875 1667.109375 540.464844 1666.316406 636.035156 1664.792969 C 669.414062 1664.261719 702.773438 1662.484375 736.148438 1662.347656 C 796.910156 1662.121094 857.691406 1663.675781 918.429688 1662.609375 C 967.566406 1661.757812 1016.648438 1658.019531 1065.789062 1655.960938 C 1070.570312 1655.765625 1075.398438 1659.011719 1080.328125 1659.488281 C 1085.898438 1660.015625 1091.601562 1658.941406 1097.230469 1659.109375 C 1102.058594 1659.25 1108.070312 1656.082031 1110.941406 1663.582031 C 1111.371094 1664.695312 1115.558594 1664.648438 1118.011719 1664.664062 C 1134.039062 1664.777344 1150.070312 1664.695312 1166.089844 1664.792969 C 1170.261719 1664.824219 1175.378906 1665.117188 1174.160156 1670.996094 C 1173.050781 1676.339844 1169 1676.152344 1164.628906 1673.566406 C 1162.878906 1672.539062 1160.359375 1672.5625 1158.191406 1672.5625 C 1111.878906 1672.59375 1065.539062 1671.992188 1019.25 1672.941406 C 965.511719 1674.046875 911.796875 1676.625 858.0625 1678.371094 C 796.664062 1680.371094 735.253906 1681.953125 673.859375 1684.125 C 640.808594 1685.289062 607.789062 1687.28125 574.742188 1689.210938 C 747.523438 1685.738281 920.414062 1697.304688 1093.121094 1682.484375 C 1093.460938 1684.046875 1093.820312 1685.621094 1094.171875 1687.195312 C 1089.390625 1689.15625 1084.679688 1692.679688 1079.839844 1692.847656 C 1013.441406 1695.042969 947.035156 1697.707031 880.613281 1698.332031 C 828.71875 1698.8125 776.792969 1695.96875 724.875 1695.792969 C 678.957031 1695.636719 633.039062 1697.074219 587.121094 1697.921875 C 535.785156 1698.851562 484.429688 1699.136719 433.136719 1701.136719 C 380.292969 1703.191406 327.519531 1706.84375 274.726562 1710.0625 C 248.597656 1711.652344 222.507812 1713.785156 196.398438 1715.753906 C 179.425781 1717.027344 162.460938 1718.378906 145.507812 1719.863281 C 143.078125 1720.078125 140.691406 1721.136719 138.359375 1722.007812 C 136.25 1722.804688 134.242188 1723.871094 132.195312 1724.828125 C 131.761719 1723.492188 130.550781 1721.691406 131.03125 1720.914062 C 132.535156 1718.457031 134.367188 1714.90625 136.621094 1714.449219 C 144.84375 1712.765625 153.253906 1711.960938 161.632812 1711.222656 C 172.5 1710.261719 183.402344 1709.691406 194.285156 1708.949219 C 194.238281 1708.085938 194.191406 1707.207031 194.144531 1706.339844 C 172.28125 1707.675781 150.421875 1709.019531 128.558594 1710.355469 C 128.28125 1709.570312 127.996094 1708.789062 127.71875 1708.007812 C 129.902344 1707.003906 132.035156 1705.273438 134.289062 1705.105469 C 155.023438 1703.550781 175.757812 1702.0625 196.507812 1700.933594 C 222.863281 1699.484375 249.230469 1698.394531 275.5625 1695.453125 C 260.75 1695.453125 245.9375 1695.3125 231.121094 1695.484375 C 207.234375 1695.769531 183.355469 1696.386719 159.464844 1696.480469 C 157.109375 1696.488281 154.738281 1693.882812 152.375 1692.480469 C 154.683594 1691.558594 156.960938 1689.890625 159.292969 1689.808594 C 215.535156 1687.953125 271.777344 1686.222656 328.027344 1684.546875 C 361.457031 1683.550781 394.882812 1682.75 428.304688 1681.746094 C 487.503906 1679.945312 546.710938 1678.363281 605.902344 1676.09375 C 642.082031 1674.703125 678.214844 1672.191406 714.371094 1670.183594 C 714.386719 1669.757812 714.371094 1669.335938 714.371094 1668.925781 Z M 714.371094 1668.925781 "/>
<path fill-rule="evenodd" fill="rgb(0%, 0%, 0%)" fill-opacity="1" d="M 1359.128906 1442.742188 C 1361.101562 1439.363281 1362.621094 1436.789062 1364.800781 1433.058594 C 1357.429688 1433.058594 1350.738281 1433.058594 1344.039062 1433.058594 C 1343.96875 1431.738281 1343.890625 1430.425781 1343.820312 1429.113281 C 1350.539062 1428.378906 1357.261719 1426.914062 1363.949219 1427.035156 C 1407.148438 1427.847656 1450.359375 1428.828125 1493.550781 1430.09375 C 1551.199219 1431.792969 1608.839844 1435.050781 1666.5 1435.347656 C 1727.28125 1435.65625 1788.089844 1433.285156 1848.878906 1432.085938 C 1862.769531 1431.808594 1876.660156 1431.53125 1890.539062 1431.175781 C 1906.671875 1430.765625 1922.800781 1430.003906 1938.921875 1429.980469 C 1943.988281 1429.972656 1949.050781 1431.871094 1954.121094 1432.835938 C 1955.339844 1433.066406 1956.609375 1433.152344 1957.871094 1433.121094 C 1985.429688 1432.441406 2013 1431.730469 2040.550781 1431.027344 C 2050.480469 1430.78125 2061.140625 1432.667969 2070.078125 1429.5625 C 2077.160156 1427.105469 2083.808594 1426.519531 2090.75 1426.132812 C 2098.609375 1425.691406 2106.5 1426.03125 2114.410156 1427.625 C 2102.601562 1427.625 2090.78125 1427.625 2078.96875 1427.625 C 2078.980469 1427.949219 2079.011719 1428.273438 2079.019531 1428.605469 C 2139.339844 1428.605469 2199.660156 1428.605469 2259.980469 1428.605469 C 2259.988281 1427.746094 2260 1426.882812 2260.011719 1426.023438 C 2255.179688 1426.023438 2250.339844 1426.140625 2245.519531 1426.007812 C 2189.179688 1424.535156 2132.839844 1422.621094 2076.480469 1421.683594 C 2034.878906 1420.988281 1993.261719 1421.4375 1951.640625 1421.59375 C 1903.171875 1421.777344 1854.699219 1421.886719 1806.238281 1422.605469 C 1752.019531 1423.414062 1697.789062 1425.269531 1643.558594 1425.886719 C 1598.5 1426.394531 1553.421875 1426.664062 1508.390625 1425.253906 C 1486.519531 1424.574219 1464.75 1420.046875 1443 1416.773438 C 1439.050781 1416.179688 1435.441406 1413.253906 1431.679688 1411.40625 C 1431.871094 1410.101562 1432.039062 1408.796875 1432.21875 1407.492188 C 1436.050781 1407.492188 1440.828125 1406 1443.550781 1407.730469 C 1459.691406 1418.03125 1478.171875 1417.246094 1495.699219 1418.007812 C 1547.648438 1420.257812 1599.679688 1421.839844 1651.679688 1421.644531 C 1705.890625 1421.445312 1760.089844 1418.566406 1814.308594 1417.390625 C 1856.558594 1416.464844 1898.820312 1416.03125 1941.078125 1415.941406 C 1997.519531 1415.839844 2053.980469 1415.269531 2110.390625 1416.742188 C 2189.878906 1418.820312 2269.320312 1422.535156 2348.78125 1425.609375 C 2416.308594 1428.21875 2483.859375 1430.667969 2551.378906 1433.625 C 2627.730469 1436.976562 2704.050781 1440.992188 2780.421875 1444.351562 C 2825.429688 1446.328125 2870.480469 1447.648438 2915.519531 1449.152344 C 2923.890625 1449.425781 2932.261719 1449.191406 2941.21875 1451.0625 C 2938.371094 1451.863281 2935.320312 1452.25 2932.699219 1453.539062 C 2929.179688 1455.261719 2926.140625 1457.988281 2922.621094 1459.6875 C 2920.089844 1460.90625 2917.050781 1461.925781 2914.339844 1461.726562 C 2891.398438 1460.027344 2868.480469 1457.988281 2845.558594 1456.140625 C 2841.691406 1455.832031 2837.78125 1454.613281 2835.929688 1460.582031 C 2835.359375 1462.445312 2829.519531 1463.820312 2826.238281 1463.554688 C 2785.679688 1460.226562 2745.179688 1456.058594 2704.589844 1453.09375 C 2658.660156 1449.734375 2612.660156 1446.921875 2566.671875 1444.691406 C 2498.550781 1441.394531 2430.429688 1438.28125 2362.269531 1436.1875 C 2327.199219 1435.105469 2292.03125 1436.351562 2256.898438 1436.597656 C 2208.449219 1436.9375 2159.980469 1437 2111.539062 1437.808594 C 2079.101562 1438.351562 2046.660156 1440.320312 2014.21875 1441.074219 C 1973.269531 1442.011719 1932.320312 1442.511719 1891.371094 1442.9375 C 1847.53125 1443.40625 1803.691406 1443.949219 1759.859375 1443.753906 C 1709.71875 1443.515625 1659.589844 1442.441406 1609.449219 1441.832031 C 1567.769531 1441.324219 1526.070312 1441.292969 1484.390625 1440.410156 C 1455.769531 1439.800781 1427.179688 1437.398438 1398.570312 1437.230469 C 1387.238281 1437.160156 1375.898438 1441 1364.539062 1442.960938 C 1363.140625 1443.214844 1361.621094 1442.867188 1359.128906 1442.742188 Z M 1359.128906 1442.742188 "/>
<path fill-rule="evenodd" fill="rgb(0%, 0%, 0%)" fill-opacity="1" d="M 2570.390625 1059.5 C 2537.269531 1056.371094 2504.160156 1052.929688 2471.011719 1050.191406 C 2430.140625 1046.820312 2389.25 1043.648438 2348.320312 1041.121094 C 2304.890625 1038.449219 2261.441406 1035.941406 2217.960938 1034.609375 C 2148.371094 1032.480469 2078.769531 1031.128906 2009.160156 1029.960938 C 1962.589844 1029.160156 1916 1029.769531 1869.441406 1028.769531 C 1818.109375 1027.660156 1766.800781 1025.390625 1715.46875 1023.699219 C 1694.699219 1023.019531 1673.921875 1022.628906 1653.160156 1021.828125 C 1650.78125 1021.738281 1648.46875 1019.890625 1646.140625 1018.871094 C 1648.78125 1017.949219 1651.449219 1016.191406 1654.070312 1016.261719 C 1685.289062 1017.011719 1716.5 1018.300781 1747.71875 1018.929688 C 1808.019531 1020.140625 1868.320312 1021 1928.609375 1022.058594 C 1959.511719 1022.609375 1990.410156 1023.390625 2021.308594 1023.828125 C 2056.519531 1024.320312 2091.71875 1024.480469 2126.929688 1024.878906 C 2142.878906 1025.058594 2158.839844 1025.089844 2174.769531 1025.949219 C 2183.921875 1026.441406 2193 1029.429688 2202.121094 1029.511719 C 2214.730469 1029.621094 2227.328125 1028.03125 2240.050781 1028.238281 C 2237.238281 1028.730469 2234.421875 1029.210938 2231.609375 1029.699219 C 2231.648438 1030.078125 2231.699219 1030.460938 2231.730469 1030.839844 C 2260.210938 1032.410156 2288.660156 1034.230469 2317.160156 1035.289062 C 2322.03125 1035.46875 2326.871094 1030.988281 2331.71875 1036.640625 C 2332.550781 1037.601562 2337.699219 1033.898438 2340.710938 1034.140625 C 2345.53125 1034.519531 2350.199219 1037.179688 2355.03125 1037.449219 C 2362.640625 1037.871094 2370.371094 1036.410156 2377.949219 1037.039062 C 2389.28125 1037.980469 2400.480469 1040.480469 2411.800781 1041.488281 C 2423.769531 1042.558594 2435.75 1045.011719 2447.910156 1041.429688 C 2451.070312 1040.488281 2455.199219 1043.371094 2458.96875 1043.898438 C 2462.570312 1044.410156 2466.300781 1043.910156 2469.941406 1044.25 C 2474.398438 1044.691406 2478.839844 1045.46875 2483.28125 1046.25 C 2484.460938 1046.449219 2485.648438 1047.75 2486.679688 1047.578125 C 2514.949219 1043.011719 2542.410156 1050.53125 2570.140625 1053.359375 C 2618.96875 1058.320312 2667.710938 1064.140625 2716.5 1069.441406 C 2721.921875 1070.03125 2727.46875 1069.519531 2733.699219 1069.519531 C 2730.230469 1076.480469 2726.289062 1079.5 2718.628906 1078.390625 C 2690.921875 1074.378906 2663.128906 1070.949219 2635.339844 1067.5 C 2630.21875 1066.871094 2624.550781 1065.5 2621.660156 1072.5 C 2621.128906 1073.789062 2617.378906 1074.390625 2615.199219 1074.238281 C 2575.878906 1071.421875 2536.578125 1068.421875 2497.28125 1065.488281 C 2495.410156 1065.339844 2492.5 1064.710938 2491.761719 1065.640625 C 2481.480469 1078.421875 2468.058594 1072.171875 2456.46875 1070.480469 C 2397.71875 1061.921875 2338.628906 1058.058594 2279.429688 1055.371094 C 2230.25 1053.140625 2181.070312 1050.820312 2131.871094 1049.660156 C 2053.648438 1047.828125 1975.421875 1046.511719 1897.191406 1045.738281 C 1821.910156 1045.011719 1746.628906 1045.230469 1671.339844 1045.078125 C 1620.308594 1044.96875 1569.289062 1044.941406 1518.269531 1044.839844 C 1486.769531 1044.78125 1455.261719 1044.710938 1423.75 1044.441406 C 1418.78125 1044.410156 1413.738281 1043.628906 1408.890625 1042.519531 C 1406.511719 1041.980469 1404.480469 1039.890625 1400.480469 1037.359375 C 1445.539062 1037.359375 1487.820312 1037.359375 1530.601562 1037.359375 C 1529.539062 1036.390625 1528.351562 1035.320312 1526.210938 1033.390625 C 1530.140625 1032.628906 1533.351562 1031.488281 1536.570312 1031.449219 C 1588.078125 1030.761719 1639.589844 1029.460938 1691.089844 1029.851562 C 1743.730469 1030.25 1796.371094 1032.070312 1849 1033.800781 C 1868.050781 1034.429688 1887.039062 1037.289062 1906.089844 1037.890625 C 1924.648438 1038.480469 1943.269531 1036.789062 1961.828125 1037.320312 C 2063.121094 1040.179688 2164.429688 1042.960938 2265.691406 1046.738281 C 2319.601562 1048.75 2373.421875 1052.929688 2427.289062 1055.738281 C 2471.109375 1058.03125 2514.949219 1059.738281 2558.78125 1061.671875 C 2562.53125 1061.839844 2566.300781 1061.691406 2570.058594 1061.691406 C 2570.140625 1060.960938 2570.269531 1060.230469 2570.390625 1059.5 Z M 2570.390625 1059.5 "/>
<path fill-rule="evenodd" fill="rgb(0%, 0%, 0%)" fill-opacity="1" d="M 107.640625 1984.324219 C 93.855469 1984.324219 81.855469 1984.324219 69.867188 1984.324219 C 69.84375 1983.195312 69.8125 1982.0625 69.785156 1980.933594 C 81.035156 1980.484375 92.316406 1979.296875 103.53125 1979.730469 C 167.742188 1982.183594 231.921875 1986.355469 296.144531 1987.390625 C 379.714844 1988.726562 463.324219 1987.675781 546.921875 1987.652344 C 559.855469 1987.644531 572.789062 1987.652344 585.726562 1987.652344 C 585.777344 1986.578125 585.824219 1985.511719 585.871094 1984.433594 C 544.496094 1982.222656 503.132812 1979.652344 461.734375 1977.875 C 419.53125 1976.054688 377.304688 1974.695312 335.078125 1973.722656 C 293.246094 1972.757812 251.40625 1972.308594 209.566406 1972.03125 C 167.996094 1971.765625 126.425781 1971.96875 84.851562 1971.96875 C 84.59375 1971.035156 84.339844 1970.105469 84.078125 1969.171875 C 87.3125 1968.316406 90.535156 1966.753906 93.785156 1966.722656 C 117.152344 1966.515625 140.527344 1966.53125 163.890625 1966.648438 C 215.15625 1966.917969 266.441406 1966.46875 317.679688 1967.828125 C 391.320312 1969.789062 464.945312 1972.816406 538.550781 1975.921875 C 621.394531 1979.414062 704.210938 1983.90625 787.0625 1987.226562 C 856.597656 1990.015625 926.183594 1991.644531 995.738281 1993.960938 C 1041.121094 1995.460938 1086.480469 1997.105469 1131.839844 1999.066406 C 1141.558594 1999.484375 1151.210938 2001.46875 1160.878906 2002.84375 C 1180.609375 2005.644531 1200.328125 2008.535156 1220.039062 2011.375 C 1220.28125 2012.226562 1220.519531 2013.082031 1220.75 2013.9375 C 1218.640625 2015.722656 1216.648438 2018.851562 1214.410156 2019.050781 C 1206.488281 2019.761719 1198.480469 2019.421875 1190.519531 2019.578125 C 1188.398438 2019.621094 1184.890625 2019.351562 1184.390625 2020.378906 C 1180.710938 2027.988281 1174.929688 2024.339844 1169.640625 2023.699219 C 1141.871094 2020.355469 1114.160156 2016.257812 1086.300781 2013.953125 C 1046.441406 2010.648438 1006.5 2008.101562 966.539062 2006.246094 C 906.136719 2003.453125 845.707031 2001.066406 785.265625 1999.453125 C 751.253906 1998.546875 717.191406 1999.46875 683.152344 1999.660156 C 618.414062 2000.023438 553.675781 2000.671875 488.933594 2000.773438 C 441 2000.851562 393.058594 2000.503906 345.132812 1999.875 C 286.328125 1999.097656 227.527344 1997.921875 168.722656 1996.75 C 150.257812 1996.378906 131.800781 1995.359375 113.324219 1994.941406 C 107.214844 1994.804688 104.0625 1993.160156 107.640625 1984.324219 Z M 114.773438 1985.265625 C 114.695312 1986.441406 114.613281 1987.621094 114.535156 1988.789062 C 152.375 1989.96875 190.214844 1991.144531 228.054688 1992.324219 C 228.078125 1991.320312 228.109375 1990.316406 228.132812 1989.3125 C 190.351562 1987.96875 152.558594 1986.617188 114.773438 1985.265625 Z M 619.535156 1992.140625 C 619.550781 1992.742188 619.574219 1993.34375 619.601562 1993.953125 C 635.171875 1993.953125 650.738281 1993.953125 666.308594 1993.953125 C 681.730469 1993.953125 697.152344 1993.953125 712.574219 1993.953125 C 712.566406 1993.351562 712.558594 1992.75 712.550781 1992.140625 C 681.550781 1992.140625 650.539062 1992.140625 619.535156 1992.140625 Z M 619.535156 1992.140625 "/>
<path fill-rule="evenodd" fill="rgb(0%, 0%, 0%)" fill-opacity="1" d="M 86.609375 1960.121094 C 81.507812 1956.339844 84.203125 1952.292969 89.128906 1950.65625 C 96.21875 1948.308594 103.824219 1946.539062 111.253906 1946.367188 C 139.792969 1945.671875 168.351562 1945.566406 196.894531 1945.496094 C 240.117188 1945.378906 283.347656 1945.464844 326.667969 1943.339844 C 301.695312 1942.253906 276.734375 1940.46875 251.746094 1940.238281 C 206.648438 1939.835938 161.535156 1940.460938 116.441406 1940.453125 C 108.28125 1940.453125 100.101562 1939.664062 91.992188 1938.738281 C 90.527344 1938.570312 89.34375 1935.957031 88.03125 1934.476562 C 89.707031 1933.566406 91.398438 1931.828125 93.042969 1931.867188 C 110.589844 1932.304688 128.132812 1933.378906 145.679688 1933.566406 C 182.824219 1933.957031 219.992188 1933.332031 257.121094 1934.199219 C 309.125 1935.417969 361.109375 1937.65625 413.097656 1939.386719 C 419 1939.582031 424.914062 1939.417969 431.089844 1938.199219 C 428.714844 1937.558594 426.359375 1936.445312 423.964844 1936.359375 C 389.328125 1934.9375 354.632812 1934.351562 320.042969 1932.183594 C 258.171875 1928.296875 196.355469 1923.546875 134.542969 1918.839844 C 130.148438 1918.5 125.941406 1915.640625 121.648438 1913.949219 C 122.019531 1912.707031 122.394531 1911.464844 122.773438 1910.226562 C 125.378906 1910.226562 128.019531 1909.972656 130.597656 1910.257812 C 167.835938 1914.421875 205.003906 1919.535156 242.339844 1922.636719 C 277.808594 1925.578125 313.449219 1926.644531 349.027344 1928.160156 C 376.433594 1929.324219 403.871094 1929.601562 431.277344 1930.816406 C 490.5 1933.464844 549.699219 1936.621094 608.921875 1939.25 C 665.96875 1941.789062 723.058594 1943.628906 780.097656 1946.359375 C 829.875 1948.746094 879.65625 1951.363281 929.363281 1954.964844 C 971.164062 1958 1012.800781 1963.425781 1054.609375 1966.160156 C 1075.820312 1967.542969 1097.269531 1964.996094 1118.609375 1964.839844 C 1128.019531 1964.769531 1137.441406 1966.246094 1147.511719 1967.066406 C 1149.230469 1972.6875 1148.121094 1975.414062 1141.109375 1974.546875 C 1133.21875 1973.566406 1125.230469 1973.328125 1117.109375 1974.65625 C 1132.03125 1977.503906 1146.941406 1980.371094 1161.851562 1983.21875 C 1163.710938 1983.574219 1165.859375 1983.453125 1167.339844 1984.394531 C 1168.980469 1985.429688 1169.988281 1987.429688 1171.28125 1989.011719 C 1169.660156 1990.269531 1168.109375 1992.488281 1166.421875 1992.601562 C 1159.929688 1993.027344 1153.410156 1992.773438 1144.628906 1992.773438 C 1147.519531 1990.300781 1148.679688 1989.3125 1150.121094 1988.070312 C 1149.378906 1987.707031 1148.71875 1987.179688 1147.980469 1987.042969 C 1107.269531 1979.835938 1066.289062 1975.589844 1024.921875 1975.171875 C 991.785156 1974.832031 958.625 1973.753906 925.503906 1974.269531 C 885.183594 1974.894531 844.898438 1977.550781 804.585938 1978.046875 C 758.644531 1978.609375 712.597656 1979.488281 666.765625 1977.042969 C 621.226562 1974.617188 575.941406 1967.84375 530.472656 1963.730469 C 485.566406 1959.660156 440.636719 1955.328125 395.613281 1953.371094 C 352.855469 1951.519531 309.964844 1952.746094 267.136719 1952.316406 C 227.136719 1951.921875 187.148438 1950.707031 147.160156 1950.738281 C 131.386719 1950.753906 115.585938 1952.894531 99.863281 1954.648438 C 95.871094 1955.109375 92.148438 1957.765625 86.609375 1960.121094 Z M 389.5 1946.300781 C 391.886719 1946.609375 394.269531 1947.039062 396.664062 1947.21875 C 431.53125 1949.84375 466.445312 1951.992188 501.257812 1955.148438 C 549.53125 1959.535156 597.671875 1965.488281 645.992188 1969.203125 C 681.3125 1971.929688 716.828125 1973.164062 752.257812 1973.226562 C 796.097656 1973.296875 839.945312 1971.519531 883.785156 1970.4375 C 895.53125 1970.144531 907.277344 1969.472656 919.023438 1968.964844 C 742.96875 1950.167969 566.652344 1940.808594 389.5 1946.300781 Z M 389.5 1946.300781 "/>
<path fill-rule="evenodd" fill="rgb(0%, 0%, 0%)" fill-opacity="1" d="M 1200.441406 1225.308594 C 1203.960938 1224.429688 1207.449219 1223 1211.011719 1222.78125 C 1242.628906 1220.699219 1274.25 1218.101562 1305.898438 1217.078125 C 1385.011719 1214.519531 1464.148438 1213.039062 1543.25 1210.488281 C 1600 1208.671875 1656.710938 1205.5 1713.449219 1203.53125 C 1762.890625 1201.808594 1812.371094 1200.511719 1861.839844 1199.730469 C 1943.210938 1198.460938 2024.589844 1197.101562 2105.96875 1197.039062 C 2157.050781 1197 2208.128906 1199.269531 2259.199219 1200.46875 C 2265.46875 1200.621094 2271.738281 1200.480469 2278 1200.480469 C 2278.460938 1207.390625 2278.449219 1207.230469 2272.699219 1207.570312 C 2214.5 1210.960938 2156.308594 1209.238281 2098.078125 1207.898438 C 2040 1206.550781 1981.851562 1205.5 1923.789062 1206.820312 C 1882.53125 1207.75 1841.371094 1212.929688 1800.140625 1215.929688 C 1790.941406 1216.601562 1781.660156 1216.03125 1771.300781 1216.75 C 1772.578125 1217.03125 1773.871094 1217.308594 1777.519531 1218.128906 C 1764.609375 1219.28125 1754.980469 1220.140625 1745.351562 1221 C 1745.351562 1221.789062 1745.371094 1222.570312 1745.378906 1223.351562 C 1761.429688 1223.351562 1777.488281 1223.5 1793.550781 1223.328125 C 1871.441406 1222.53125 1949.328125 1221.589844 2027.230469 1220.839844 C 2087.140625 1220.25 2147.058594 1219.109375 2206.949219 1219.679688 C 2240.269531 1220.011719 2273.558594 1223.339844 2306.871094 1225.359375 C 2307.628906 1225.410156 2308.359375 1225.980469 2309.160156 1228.121094 C 2303.539062 1228.699219 2297.871094 1230.109375 2292.320312 1229.71875 C 2195.578125 1222.988281 2098.75 1227.128906 2001.949219 1227.070312 C 1953.078125 1227.039062 1904.210938 1229.460938 1855.328125 1229.519531 C 1797.320312 1229.589844 1739.300781 1227.789062 1681.269531 1227.75 C 1632.691406 1227.710938 1584.101562 1229.558594 1535.511719 1229.640625 C 1486.339844 1229.730469 1437.148438 1229.050781 1387.988281 1227.941406 C 1370.179688 1227.53125 1352.378906 1223.230469 1334.640625 1223.589844 C 1292.75 1224.421875 1250.898438 1227 1209.03125 1228.828125 C 1206.21875 1228.960938 1203.390625 1228.851562 1200.558594 1228.851562 C 1200.539062 1227.671875 1200.5 1226.480469 1200.441406 1225.308594 Z M 1831.71875 1205.160156 C 1710.949219 1210.058594 1590.191406 1214.949219 1472.648438 1219.710938 C 1590.621094 1226.761719 1711.320312 1220.089844 1831.71875 1205.160156 Z M 1831.71875 1205.160156 "/>
<path fill-rule="evenodd" fill="rgb(0%, 0%, 0%)" fill-opacity="1" d="M 1134.441406 989.628906 C 1128.960938 991.519531 1123.570312 994.71875 1117.988281 995.058594 C 1090.648438 996.730469 1063.261719 997.859375 1035.878906 998.78125 C 993.929688 1000.199219 951.96875 1001.699219 910.011719 1002.441406 C 872.535156 1003.089844 835.050781 1002.601562 797.566406 1002.910156 C 725.089844 1003.519531 652.609375 1004.5 580.132812 1004.988281 C 542.65625 1005.25 505.140625 1003.628906 467.71875 1004.941406 C 418.34375 1006.671875 369.066406 1010.761719 319.71875 1013.179688 C 300.550781 1014.121094 281.253906 1013.941406 262.078125 1013.058594 C 227.90625 1011.46875 193.78125 1008.960938 159.632812 1006.890625 C 157.859375 1006.78125 156.066406 1007.179688 153.855469 1008.921875 C 157.230469 1010.050781 160.515625 1011.578125 163.980469 1012.238281 C 207.25 1020.53125 250.890625 1020.371094 294.777344 1019.519531 C 339.1875 1018.640625 383.652344 1021.109375 428.09375 1021.460938 C 452.992188 1021.648438 477.945312 1019.28125 502.800781 1020.210938 C 563.261719 1022.480469 623.664062 1026.519531 684.125 1028.859375 C 719.40625 1030.230469 754.753906 1029.660156 790.074219 1030.058594 C 832.917969 1030.558594 875.761719 1031.601562 918.605469 1031.589844 C 965.898438 1031.578125 1013.191406 1030.601562 1060.480469 1030.140625 C 1077.609375 1029.96875 1094.761719 1030.109375 1112.789062 1030.109375 C 1111.699219 1033.011719 1110.761719 1035.488281 1109.898438 1037.800781 C 1087.898438 1037.800781 1066.519531 1037.691406 1045.160156 1037.820312 C 1007 1038.050781 968.839844 1038.550781 930.683594 1038.699219 C 897.648438 1038.828125 864.605469 1039.109375 831.589844 1038.5 C 770.730469 1037.359375 709.871094 1035.878906 649.027344 1034.039062 C 604.34375 1032.679688 559.699219 1029.980469 515.011719 1028.820312 C 483.84375 1028.019531 452.621094 1029.238281 421.445312 1028.789062 C 386.203125 1028.300781 350.972656 1026.558594 315.726562 1026.078125 C 290.921875 1025.738281 265.996094 1028.171875 241.320312 1026.539062 C 210.625 1024.488281 180.121094 1019.621094 149.578125 1015.621094 C 147.902344 1015.398438 146.179688 1012.089844 145.324219 1009.890625 C 144.375 1007.441406 144.40625 1004.621094 143.671875 999.660156 C 147.933594 999.660156 152.289062 999.28125 156.574219 999.710938 C 206.777344 1004.789062 257.058594 1008.609375 307.539062 1006.300781 C 357.28125 1004.019531 406.960938 999.738281 456.730469 998.269531 C 508.097656 996.769531 559.53125 997.730469 610.9375 997.390625 C 671.210938 996.980469 731.492188 996.28125 791.765625 995.839844 C 834.039062 995.53125 876.335938 996.171875 918.589844 995.070312 C 973.421875 993.640625 1028.21875 991.070312 1083.019531 988.648438 C 1098.941406 987.949219 1114.808594 986.121094 1130.699219 984.910156 C 1131.480469 984.839844 1132.320312 985.730469 1133.128906 986.171875 C 1133.558594 987.328125 1134 988.488281 1134.441406 989.628906 Z M 1134.441406 989.628906 "/>
<path fill-rule="evenodd" fill="rgb(0%, 0%, 0%)" fill-opacity="1" d="M 1802.980469 838.199219 C 1808.488281 838.679688 1814.019531 839.148438 1819.539062 839.621094 C 1819.621094 839.171875 1819.691406 838.710938 1819.75 838.261719 C 1806.03125 835.820312 1792.300781 833.371094 1778.570312 830.929688 C 1778.699219 830.269531 1778.808594 829.601562 1778.941406 828.941406 C 1791.429688 830.75 1803.878906 833.191406 1816.441406 834.25 C 1863.980469 838.269531 1911.519531 842.160156 1959.109375 845.511719 C 2026.660156 850.25 2094.25 854.648438 2161.839844 858.851562 C 2228.230469 862.96875 2294.648438 866.878906 2361.070312 870.46875 C 2445.429688 875.019531 2529.859375 878.511719 2614.171875 883.730469 C 2657.269531 886.398438 2700.191406 892 2743.210938 895.960938 C 2767.308594 898.179688 2791.429688 900.03125 2815.578125 901.339844 C 2820.160156 901.578125 2824.859375 897.578125 2829.621094 897.269531 C 2832.539062 897.078125 2835.699219 900.148438 2838.75 901.769531 C 2838.410156 902.558594 2838.078125 903.371094 2837.75 904.171875 C 2859.648438 905.53125 2881.539062 906.890625 2904.789062 908.328125 C 2906.171875 911.398438 2907.480469 915.21875 2899.851562 914.878906 C 2841.570312 912.320312 2783.300781 909.691406 2725.019531 907.230469 C 2684.800781 905.53125 2644.558594 904.179688 2604.339844 902.441406 C 2546.320312 899.941406 2488.289062 897.570312 2430.289062 894.480469 C 2398.078125 892.769531 2365.960938 889.308594 2333.75 887.390625 C 2317.160156 886.410156 2300.460938 887.691406 2283.851562 886.898438 C 2237.859375 884.71875 2191.890625 882.160156 2145.929688 879.441406 C 2093.621094 876.339844 2041.261719 873.738281 1989.058594 869.339844 C 1942.410156 865.398438 1895.730469 860.839844 1850.011719 849.800781 C 1834.289062 846 1818.339844 843.199219 1802.488281 839.941406 C 1802.671875 839.359375 1802.820312 838.78125 1802.980469 838.199219 Z M 2720 899.980469 C 2720.019531 899.671875 2720.039062 899.359375 2720.058594 899.058594 C 2684.359375 895.730469 2648.71875 891.761719 2612.960938 889.261719 C 2572.589844 886.441406 2532.128906 884.980469 2491.71875 882.890625 C 2453.070312 880.910156 2414.449219 878.871094 2375.808594 876.910156 C 2340.269531 875.089844 2304.710938 873.558594 2269.191406 871.488281 C 2219.839844 868.609375 2170.511719 865.371094 2121.160156 862.230469 C 2079.71875 859.589844 2038.261719 857.179688 1996.851562 854.070312 C 1956.949219 851.089844 1917.109375 847.390625 1877.261719 843.878906 C 1862.460938 842.570312 1847.699219 840.871094 1832.929688 839.351562 C 1832.800781 840.328125 1832.679688 841.308594 1832.550781 842.289062 C 1867.609375 847.730469 1902.519531 854.53125 1937.761719 858.261719 C 1983.839844 863.121094 2030.160156 866.101562 2076.429688 868.929688 C 2156.660156 873.839844 2236.949219 878.019531 2317.21875 882.519531 C 2346.800781 884.179688 2376.371094 885.921875 2405.960938 887.550781 C 2462.058594 890.640625 2518.140625 893.980469 2574.25 896.628906 C 2609.46875 898.289062 2644.71875 899.019531 2679.960938 899.941406 C 2693.289062 900.269531 2706.648438 899.980469 2720 899.980469 Z M 2720 899.980469 "/>
<path fill-rule="evenodd" fill="rgb(0%, 0%, 0%)" fill-opacity="1" d="M 1265.980469 797 C 1398.980469 792.429688 1531.808594 801.160156 1662.96875 803.679688 C 1663.378906 803.480469 1661.691406 804.339844 1660 805.199219 C 1660.050781 805.808594 1660.101562 806.421875 1660.148438 807.03125 C 1668.941406 807.03125 1677.730469 807.03125 1686.039062 807.03125 C 1689.429688 815.851562 1684.851562 816.109375 1679.511719 815.691406 C 1659.679688 814.148438 1639.851562 811.308594 1620.03125 811.378906 C 1589.761719 811.480469 1559.511719 814.019531 1529.230469 814.78125 C 1443.140625 816.929688 1357.019531 818.320312 1270.929688 820.75 C 1200.609375 822.738281 1130.320312 825.589844 1060.03125 828.480469 C 997.707031 831.039062 935.410156 834.308594 873.097656 837.011719 C 854.835938 837.800781 836.535156 837.878906 818.246094 837.941406 C 813.820312 837.960938 809.390625 836.621094 804.964844 835.921875 C 805.035156 834.671875 805.101562 833.421875 805.164062 832.171875 C 1044.21875 824.03125 1283.269531 815.890625 1522.328125 807.75 C 1522.410156 807.28125 1522.488281 806.808594 1522.578125 806.328125 C 1518.011719 805.980469 1513.460938 805.421875 1508.878906 805.320312 C 1456.511719 804.160156 1404.140625 801.78125 1351.789062 802.28125 C 1268.148438 803.070312 1184.53125 805.53125 1100.921875 807.78125 C 1058.019531 808.941406 1015.140625 810.941406 972.269531 813.011719 C 928.5625 815.121094 884.890625 817.789062 841.191406 820.179688 C 836.148438 820.460938 831.074219 820.761719 826.039062 820.488281 C 817.050781 820.011719 816.230469 819.121094 813.574219 809.941406 C 843.546875 816.589844 873.648438 811.421875 903.59375 810.460938 C 972.347656 808.28125 1041.050781 804.621094 1109.78125 801.710938 C 1131.539062 800.789062 1153.328125 800.339844 1175.101562 799.699219 C 1177.621094 799.628906 1180.191406 799.460938 1182.640625 799.910156 C 1183.289062 800.03125 1183.390625 803.230469 1184.050781 803.351562 C 1186.480469 803.78125 1189.039062 803.519531 1193.601562 803.519531 C 1190.851562 801.980469 1189.730469 801.351562 1186.160156 799.339844 C 1214.398438 798.5 1240.25 797.738281 1266.140625 796.96875 C 1266.648438 798.511719 1267.109375 801.390625 1267.609375 801.398438 C 1281.308594 801.640625 1295.011719 801.589844 1308.710938 801.589844 C 1304.019531 799.78125 1299.320312 800.078125 1294.679688 799.730469 C 1285.089844 799 1275.539062 797.929688 1265.980469 797 Z M 1265.980469 797 "/>
<path fill-rule="evenodd" fill="rgb(0%, 0%, 0%)" fill-opacity="1" d="M 3230.21875 1277.714844 C 3221.699219 1290.085938 3207.699219 1279.886719 3196.121094 1283.5625 C 3195.941406 1292.472656 3189.980469 1291 3183.019531 1290.117188 C 3158.011719 1286.9375 3132.890625 1284.605469 3107.851562 1281.664062 C 3081.210938 1278.535156 3054.628906 1274.84375 3027.96875 1271.839844 C 2998 1268.457031 2967.96875 1265.414062 2937.941406 1262.519531 C 2906.570312 1259.492188 2875.21875 1256.007812 2843.769531 1254.179688 C 2801.378906 1251.730469 2758.921875 1250.308594 2716.460938 1249.140625 C 2679.660156 1248.140625 2642.820312 1248.171875 2605.988281 1247.578125 C 2601.640625 1247.511719 2597.230469 1246.660156 2592.988281 1245.578125 C 2591.28125 1245.140625 2589.96875 1243.140625 2588.480469 1241.851562 C 2590.351562 1240.628906 2592.269531 1238.308594 2594.101562 1238.390625 C 2605.101562 1238.828125 2616.058594 1240.171875 2627.058594 1240.558594 C 2651.308594 1241.378906 2675.570312 1241.640625 2699.808594 1242.46875 C 2734.460938 1243.679688 2769.128906 1244.660156 2803.730469 1246.71875 C 2835.820312 1248.621094 2867.808594 1251.800781 2899.859375 1254.363281 C 2900.300781 1254.402344 2900.789062 1253.722656 2902.449219 1252.496094 C 2883.230469 1250.078125 2865.101562 1247.441406 2846.910156 1245.570312 C 2804.570312 1241.230469 2762.25 1236.621094 2719.828125 1233.351562 C 2691.070312 1231.140625 2662.160156 1230.609375 2633.308594 1230.070312 C 2608.578125 1229.609375 2583.808594 1230.058594 2559.058594 1230.398438 C 2552.46875 1230.5 2545.898438 1231.921875 2539.289062 1232.25 C 2533.460938 1232.539062 2525.960938 1237.589844 2523.039062 1227.210938 C 2522.808594 1226.359375 2518.308594 1226.25 2515.890625 1226.519531 C 2498.808594 1228.460938 2481.738281 1230.601562 2464.660156 1232.660156 C 2463.71875 1232.78125 2462.691406 1233.109375 2461.851562 1232.851562 C 2457.710938 1231.578125 2453.609375 1230.148438 2449.5 1228.769531 C 2452.828125 1227.320312 2456.109375 1224.699219 2459.5 1224.589844 C 2511.039062 1222.691406 2562.640625 1218.691406 2614.101562 1220.109375 C 2673.558594 1221.738281 2732.980469 1227.390625 2792.28125 1232.820312 C 2837.769531 1236.96875 2883.019531 1243.71875 2928.410156 1248.910156 C 2961 1252.632812 2993.679688 1255.507812 3026.289062 1259.066406 C 3055.699219 1262.277344 3085.019531 1266.449219 3114.46875 1269.167969 C 3137.328125 1271.292969 3160.339844 1271.714844 3183.269531 1273.160156 C 3189.160156 1273.53125 3194.96875 1275.578125 3200.851562 1275.640625 C 3210.179688 1275.753906 3219.5 1274.851562 3228.839844 1274.386719 C 3229.28125 1275.515625 3229.75 1276.613281 3230.21875 1277.714844 Z M 3230.21875 1277.714844 "/>
<path fill-rule="evenodd" fill="rgb(0%, 0%, 0%)" fill-opacity="1" d="M 2956.128906 371.78125 C 2896.621094 371.78125 2837.070312 370.621094 2777.601562 372.101562 C 2718.640625 373.558594 2659.75 377.660156 2597.730469 380.769531 C 2601.660156 378.121094 2603.550781 375.789062 2605.609375 375.621094 C 2636.601562 373.121094 2667.578125 370.25 2698.628906 368.808594 C 2728.441406 367.410156 2758.320312 367.808594 2788.160156 367 C 2843.578125 365.5 2898.988281 363.601562 2954.398438 362.109375 C 2966.371094 361.78125 2978.890625 364.730469 2990.21875 362.121094 C 3005.738281 358.53125 3011.179688 364.800781 3013.429688 378.121094 C 3013.511719 378.550781 3014.261719 378.859375 3013.109375 377.890625 C 3021.5 371.558594 3028.679688 363.480469 3037.640625 360.109375 C 3046.128906 356.910156 3056.839844 356.808594 3065.941406 358.570312 C 3092.558594 363.761719 3119.011719 368.359375 3146.371094 366.570312 C 3170.410156 365.011719 3194.621094 363.480469 3218.378906 370.390625 C 3214.859375 375.679688 3213.648438 375.519531 3203.308594 374.730469 C 3185.769531 373.371094 3168.179688 372.691406 3150.609375 371.738281 C 3150.5 373.039062 3150.398438 374.351562 3150.300781 375.660156 C 3171.429688 377.480469 3192.558594 379.289062 3213.679688 381.109375 C 3213.839844 381.960938 3213.980469 382.808594 3214.140625 383.660156 C 3212.558594 384.621094 3211.03125 386.339844 3209.410156 386.421875 C 3185.078125 387.589844 3161.160156 385.050781 3137.320312 379.648438 C 3119.570312 375.621094 3101.378906 373.390625 3083.308594 370.960938 C 3072.289062 369.480469 3063.691406 374.039062 3055.5 381.949219 C 3045.429688 391.691406 3033.5 399.53125 3022.441406 408.28125 C 3016.070312 413.320312 3013.589844 409.539062 3011.949219 403.828125 C 3011.160156 401.101562 3010.648438 398.308594 3010.039062 395.539062 C 3008.230469 387.449219 3004.339844 383.929688 2995.351562 386.679688 C 2991.851562 387.75 2985.488281 386.601562 2983.460938 384.050781 C 2977.71875 376.859375 2970.679688 378.320312 2963.628906 378.910156 C 2929.460938 381.78125 2895.339844 386.359375 2861.121094 387.410156 C 2808.25 389.039062 2755.320312 388.308594 2702.421875 388.539062 C 2687.929688 388.609375 2673.449219 388.691406 2658.960938 388.371094 C 2657 388.339844 2655.078125 386.058594 2653.140625 384.820312 C 2654.910156 383.671875 2656.679688 381.519531 2658.429688 381.53125 C 2684.878906 381.699219 2711.300781 382.339844 2737.730469 382.460938 C 2770.148438 382.621094 2802.628906 383.601562 2834.96875 382.03125 C 2871.730469 380.230469 2908.390625 376.011719 2945.101562 372.859375 C 2948.78125 372.539062 2952.480469 372.429688 2956.171875 372.21875 C 2956.148438 372.078125 2956.140625 371.929688 2956.128906 371.78125 Z M 3057.101562 366.089844 C 3040.179688 362.761719 3031.570312 373.539062 3022.058594 383.910156 C 3016.871094 389.570312 3016.589844 393.480469 3021.390625 398.671875 C 3043.859375 385.691406 3054.898438 375.730469 3057.101562 366.089844 Z M 3001.96875 371.640625 C 2997.179688 371.371094 2992.390625 371.089844 2986.308594 370.738281 C 2992.378906 380.441406 2994.910156 380.769531 3001.96875 371.640625 Z M 3001.96875 371.640625 "/>
<path fill-rule="evenodd" fill="rgb(0%, 0%, 0%)" fill-opacity="1" d="M 660.347656 509.558594 C 643.203125 511.148438 626.058594 512.738281 608.90625 514.328125 C 608.921875 514.75 608.945312 515.179688 608.960938 515.589844 C 622.960938 516.808594 636.964844 518.011719 650.972656 519.210938 C 651.109375 520.351562 651.25 521.46875 651.382812 522.589844 C 647.875 523.339844 644.347656 524.761719 640.847656 524.730469 C 612.855469 524.53125 584.859375 523.410156 556.875 523.820312 C 508.679688 524.5 460.507812 526.429688 412.3125 527.210938 C 368.316406 527.929688 324.296875 527.328125 280.296875 528.25 C 252.039062 528.839844 223.828125 531.441406 195.574219 532.53125 C 172.683594 533.421875 149.757812 533.46875 126.84375 533.730469 C 124.867188 533.75 122.867188 532.578125 118.953125 531.371094 C 128.75 524.351562 138.390625 526.21875 147.332031 525.710938 C 177.765625 523.980469 208.222656 522.488281 238.679688 521.25 C 250.898438 520.761719 263.160156 521.179688 275.398438 520.03125 C 254.621094 520.03125 233.839844 519.960938 213.058594 520.050781 C 191.660156 520.128906 170.273438 520.378906 148.875 520.519531 C 147.300781 520.53125 145.507812 520.71875 144.203125 520.058594 C 140.558594 518.179688 132.519531 520.820312 134.289062 513.320312 C 135.980469 506.148438 141.441406 512.191406 145.214844 512.25 C 165.0625 512.550781 184.917969 513.550781 204.753906 513.140625 C 281.371094 511.609375 357.96875 509.28125 434.597656 507.921875 C 490.175781 506.941406 545.777344 507.21875 601.363281 506.5 C 617.566406 506.300781 633.742188 504.449219 649.945312 503.660156 C 653.410156 503.488281 656.941406 504.660156 660.445312 505.210938 C 660.402344 506.660156 660.378906 508.109375 660.347656 509.558594 Z M 477.300781 517.75 C 477.292969 517.140625 477.273438 516.519531 477.265625 515.898438 C 440.289062 515.898438 403.304688 515.898438 366.324219 515.898438 C 366.332031 516.519531 366.347656 517.140625 366.355469 517.75 C 403.335938 517.75 440.320312 517.75 477.300781 517.75 Z M 280.011719 519.570312 C 305.0625 519.570312 327.71875 519.570312 350.363281 519.570312 C 329.449219 517.589844 308.523438 517.558594 287.601562 517.660156 C 285.855469 517.671875 284.117188 518.5 280.011719 519.570312 Z M 528.640625 516.089844 C 528.65625 515.519531 528.671875 514.941406 528.6875 514.371094 C 514.617188 514.371094 500.546875 514.371094 486.476562 514.371094 C 486.484375 514.941406 486.492188 515.519531 486.507812 516.089844 C 500.554688 516.089844 514.601562 516.089844 528.640625 516.089844 Z M 528.640625 516.089844 "/>
<path fill-rule="evenodd" fill="rgb(0%, 0%, 0%)" fill-opacity="1" d="M 1430.289062 625.710938 C 1419.25 626.078125 1408.179688 627.050781 1397.160156 626.71875 C 1359.390625 625.589844 1321.640625 623.871094 1283.878906 622.628906 C 1221.679688 620.601562 1159.46875 618.640625 1097.261719 616.949219 C 1072.480469 616.28125 1047.679688 616.328125 1022.890625 616.210938 C 1020.230469 616.199219 1017.550781 617.160156 1014.960938 619.121094 C 1036.738281 619.890625 1058.53125 620.378906 1080.289062 621.46875 C 1136.058594 624.261719 1191.78125 628.179688 1247.570312 629.988281 C 1294.878906 631.53125 1342.261719 630.691406 1389.609375 631.03125 C 1393.660156 631.070312 1397.699219 632.140625 1401.75 632.730469 C 1401.609375 634.320312 1401.488281 635.890625 1401.351562 637.46875 C 1385.21875 637.75 1369.078125 638.410156 1352.949219 638.230469 C 1303.300781 637.648438 1253.628906 637.328125 1204 635.761719 C 1170.050781 634.691406 1136.171875 631.398438 1102.230469 629.648438 C 1067.339844 627.859375 1032.429688 626.238281 997.5 625.460938 C 966.476562 624.761719 935.355469 624.109375 904.398438 625.75 C 884.398438 626.820312 864.628906 632.058594 844.742188 635.339844 C 842.558594 635.691406 840.261719 635.378906 837.546875 633.28125 C 840.449219 631.960938 843.230469 630.050781 846.277344 629.410156 C 892.882812 619.761719 939.945312 613.308594 987.53125 612.238281 C 1039.890625 611.070312 1092.289062 610.25 1144.648438 610.910156 C 1197.550781 611.570312 1250.421875 614.078125 1303.300781 616.070312 C 1345.050781 617.640625 1386.789062 619.660156 1428.53125 621.511719 C 1429.089844 621.53125 1429.628906 622.019531 1430.171875 622.28125 C 1430.210938 623.421875 1430.25 624.558594 1430.289062 625.710938 Z M 1430.289062 625.710938 "/>
<path fill-rule="evenodd" fill="rgb(0%, 0%, 0%)" fill-opacity="1" d="M 153.386719 1448.9375 C 155.464844 1448.019531 157.539062 1446.3125 159.632812 1446.289062 C 204.300781 1445.726562 248.988281 1445.847656 293.648438 1444.8125 C 357.550781 1443.324219 421.445312 1441.199219 485.332031 1439.03125 C 538.890625 1437.214844 592.535156 1436.296875 645.96875 1432.566406 C 727.269531 1426.875 808.617188 1426.371094 890.027344 1425.421875 C 946.167969 1424.773438 1002.269531 1422.273438 1058.390625 1420.265625 C 1099.671875 1418.789062 1140.929688 1416.804688 1182.191406 1414.996094 C 1186.488281 1414.804688 1190.78125 1414.171875 1195.070312 1413.753906 C 1195.261719 1414.929688 1195.449219 1416.125 1195.640625 1417.304688 C 1186.339844 1419.453125 1177.101562 1423.121094 1167.730469 1423.5 C 1118.21875 1425.507812 1068.691406 1426.710938 1019.160156 1428.15625 C 966.523438 1429.679688 913.882812 1431.367188 861.230469 1432.605469 C 828.457031 1433.375 795.644531 1432.796875 762.886719 1433.980469 C 716.378906 1435.648438 669.90625 1438.503906 623.410156 1440.628906 C 589.121094 1442.1875 554.804688 1443.324219 520.507812 1444.765625 C 475.804688 1446.628906 431.121094 1449.570312 386.402344 1450.304688 C 335.835938 1451.128906 285.238281 1449.765625 234.65625 1449.871094 C 213.457031 1449.917969 192.261719 1451.332031 171.0625 1452.027344 C 165.527344 1452.210938 159.988281 1452.058594 154.4375 1452.058594 C 154.074219 1451.015625 153.726562 1449.980469 153.386719 1448.9375 Z M 153.386719 1448.9375 "/>
<path fill-rule="evenodd" fill="rgb(0%, 0%, 0%)" fill-opacity="1" d="M 1164.96875 1384.175781 C 1166.761719 1392.472656 1162.429688 1393.507812 1157.070312 1393.453125 C 1110.710938 1392.980469 1064.351562 1391.867188 1018 1392.214844 C 973.28125 1392.546875 928.570312 1394.277344 883.863281 1395.589844 C 835.136719 1397.019531 786.40625 1398.148438 737.71875 1400.363281 C 688.695312 1402.601562 639.71875 1405.992188 590.722656 1408.898438 C 557.191406 1410.898438 523.660156 1413.019531 490.121094 1414.9375 C 445.847656 1417.453125 401.460938 1418.566406 357.328125 1422.574219 C 300.753906 1427.707031 244.164062 1427.453125 187.503906 1427.308594 C 181.21875 1427.292969 174.925781 1428.527344 168.628906 1428.597656 C 165.796875 1428.628906 162.953125 1427.222656 160.105469 1426.472656 C 160.265625 1425.484375 160.421875 1424.503906 160.582031 1423.515625 C 176.289062 1422.589844 191.984375 1421.144531 207.699219 1420.828125 C 243.753906 1420.101562 279.855469 1420.898438 315.859375 1419.292969 C 357.335938 1417.445312 398.710938 1413.492188 440.148438 1410.78125 C 476.328125 1408.410156 512.539062 1406.558594 548.726562 1404.371094 C 598.128906 1401.398438 647.511719 1397.800781 696.949219 1395.429688 C 751.6875 1392.804688 806.476562 1391.289062 861.246094 1389.242188 C 895.886719 1387.953125 930.507812 1385.769531 965.15625 1385.4375 C 1027.890625 1384.832031 1090.640625 1385.320312 1153.390625 1385.273438 C 1157.070312 1385.257812 1160.761719 1384.585938 1164.96875 1384.175781 Z M 1164.96875 1384.175781 "/>
<path fill-rule="evenodd" fill="rgb(0%, 0%, 0%)" fill-opacity="1" d="M 167.957031 1223.140625 C 181.203125 1223.140625 194.460938 1223.5 207.691406 1223.070312 C 258.007812 1221.429688 308.296875 1219.121094 358.609375 1217.820312 C 432.011719 1215.921875 505.449219 1215.28125 578.835938 1213 C 658.964844 1210.5 739.046875 1206.328125 819.179688 1203.679688 C 865.714844 1202.140625 912.3125 1202.519531 958.863281 1201.289062 C 996.078125 1200.300781 1033.25 1198.171875 1070.449219 1196.570312 C 1081.800781 1196.078125 1093.148438 1195.511719 1104.488281 1195.421875 C 1106.570312 1195.390625 1108.660156 1197.5 1110.75 1198.621094 C 1108.910156 1200.511719 1107.148438 1203.910156 1105.199219 1204.039062 C 1091.441406 1204.839844 1077.628906 1204.871094 1063.839844 1205.339844 C 1028.179688 1206.558594 992.535156 1208.308594 956.863281 1209.019531 C 914.351562 1209.871094 871.816406 1209.371094 829.3125 1210.359375 C 783.3125 1211.429688 737.332031 1213.5 691.34375 1215.160156 C 657.636719 1216.378906 623.941406 1217.820312 590.226562 1218.859375 C 556.636719 1219.871094 523.035156 1220.429688 489.441406 1221.328125 C 458.003906 1222.171875 426.574219 1223.289062 395.144531 1224.109375 C 354.648438 1225.179688 314.144531 1225.988281 273.65625 1227.050781 C 241.730469 1227.871094 209.804688 1228.96875 177.875 1229.75 C 174.4375 1229.828125 170.96875 1228.558594 167.519531 1227.910156 C 167.65625 1226.320312 167.804688 1224.71875 167.957031 1223.140625 Z M 167.957031 1223.140625 "/>
<path fill-rule="evenodd" fill="rgb(0%, 0%, 0%)" fill-opacity="1" d="M 1859.519531 351.070312 C 1840.691406 350 1821.859375 348.859375 1803.03125 347.871094 C 1771.921875 346.25 1740.820312 344.03125 1709.679688 343.390625 C 1691.480469 343.019531 1673.230469 345.359375 1654.988281 346.101562 C 1652.078125 346.21875 1649.089844 344.378906 1646.140625 343.441406 C 1648.800781 341.929688 1651.441406 339.121094 1654.140625 339.070312 C 1689.699219 338.320312 1725.300781 336.769531 1760.820312 337.75 C 1815.359375 339.269531 1869.859375 342.589844 1924.371094 345.171875 C 1957.128906 346.71875 1989.890625 348.378906 2022.660156 349.871094 C 2033.988281 350.390625 2045.339844 350.351562 2056.660156 351.050781 C 2059.519531 351.230469 2062.28125 353.308594 2066.269531 355.011719 C 2030.738281 364.871094 1996.570312 363.210938 1962.179688 362.699219 C 1899.878906 361.78125 1837.539062 362.351562 1775.238281 363.511719 C 1739.140625 364.171875 1703.101562 367.441406 1667.019531 368.910156 C 1662.339844 369.101562 1657.519531 365.480469 1652.769531 363.621094 C 1656.121094 355.261719 1661.839844 361.960938 1666.339844 361.679688 C 1692.441406 360.050781 1718.558594 358.648438 1744.679688 357.511719 C 1780.558594 355.949219 1816.449219 354.691406 1852.351562 353.308594 C 1854.808594 353.210938 1857.269531 353.308594 1859.730469 353.308594 C 1859.640625 352.550781 1859.578125 351.808594 1859.519531 351.070312 Z M 1859.519531 351.070312 "/>
<path fill-rule="evenodd" fill="rgb(0%, 0%, 0%)" fill-opacity="1" d="M 1076.058594 1372.769531 C 1074.378906 1373.503906 1073.078125 1374.640625 1072.210938 1374.371094 C 1052.078125 1368.136719 1032.199219 1374.625 1012.25 1375.566406 C 988.332031 1376.6875 964.46875 1379.488281 940.546875 1380.046875 C 886.496094 1381.320312 832.394531 1380.808594 778.367188 1382.601562 C 711.207031 1384.839844 644.074219 1388.070312 576.984375 1391.992188 C 521.058594 1395.265625 465.253906 1400.585938 409.34375 1404.117188 C 379.621094 1405.992188 349.78125 1405.855469 320.003906 1406.875 C 271.917969 1408.527344 223.84375 1410.394531 175.757812 1412.117188 C 170.675781 1412.300781 165.585938 1412.140625 160.5 1412.140625 C 160.453125 1411.035156 160.414062 1409.9375 160.367188 1408.820312 C 163.625 1408.316406 166.871094 1407.476562 170.144531 1407.34375 C 222.664062 1405.28125 275.199219 1403.628906 327.695312 1401.226562 C 370.417969 1399.265625 413.113281 1396.585938 455.804688 1393.921875 C 492.238281 1391.652344 528.632812 1388.507812 565.082031 1386.554688 C 630.578125 1383.035156 696.078125 1379.457031 761.625 1377.148438 C 814.863281 1375.273438 868.21875 1376.300781 921.441406 1374.039062 C 966.125 1372.160156 1010.679688 1367.257812 1055.320312 1364.066406 C 1062.988281 1363.519531 1072.859375 1359.550781 1076.058594 1372.769531 Z M 1076.058594 1372.769531 "/>
<path fill-rule="evenodd" fill="rgb(0%, 0%, 0%)" fill-opacity="1" d="M 2092.839844 658.109375 C 2086.160156 658.460938 2079.308594 659.941406 2072.820312 659.011719 C 2028.839844 652.691406 1984.761719 658.46875 1940.761719 657.371094 C 1898.839844 656.308594 1856.929688 654.289062 1815 653.621094 C 1781.320312 653.070312 1747.609375 654.109375 1713.910156 654.058594 C 1687.140625 654.019531 1660.371094 653.890625 1633.628906 652.820312 C 1615.488281 652.089844 1597.410156 649.820312 1579.328125 647.871094 C 1574.300781 647.339844 1570.960938 644.628906 1574.730469 638.589844 C 1566.5 638.210938 1558.660156 638.140625 1550.898438 637.269531 C 1548.929688 637.050781 1547.230469 634.28125 1545.410156 632.671875 C 1547.441406 631.679688 1549.519531 629.71875 1551.5 629.820312 C 1609.109375 632.488281 1666.710938 635.308594 1724.300781 638.25 C 1754.519531 639.78125 1784.71875 641.78125 1814.941406 643.28125 C 1843.5 644.691406 1872.078125 646.160156 1900.660156 646.761719 C 1941.71875 647.621094 1982.808594 647.210938 2023.859375 648.371094 C 2045.230469 648.980469 2066.539062 651.75 2087.890625 653.660156 C 2089.621094 653.820312 2091.269531 654.78125 2092.960938 655.371094 C 2092.910156 656.28125 2092.878906 657.191406 2092.839844 658.109375 Z M 1588.628906 637.460938 C 1618.46875 646.339844 1723.269531 651.519531 1743.398438 646.859375 C 1743.441406 645.960938 1743.480469 645.058594 1743.519531 644.160156 C 1691.890625 641.941406 1640.261719 639.699219 1588.628906 637.460938 Z M 1588.628906 637.460938 "/>
<path fill-rule="evenodd" fill="rgb(0%, 0%, 0%)" fill-opacity="1" d="M 2370.910156 649.941406 C 2336.148438 648.589844 2301.378906 647.109375 2266.621094 645.929688 C 2242.078125 645.089844 2217.519531 644.648438 2192.988281 644 C 2187.398438 643.859375 2181.648438 643.75 2185.011719 633.960938 C 2254.378906 638.070312 2323.980469 640.21875 2393.121094 647 C 2436.089844 651.210938 2478.890625 656.46875 2522.070312 657.839844 C 2534.039062 658.21875 2546.011719 658.769531 2557.921875 659.929688 C 2560.121094 660.140625 2568.109375 659.109375 2561.859375 668.058594 C 2577.539062 669.210938 2592.269531 670.289062 2606.988281 671.371094 C 2607.230469 672.460938 2607.46875 673.539062 2607.710938 674.640625 C 2601.921875 675.820312 2595.988281 678.449219 2590.351562 677.929688 C 2559.339844 675.101562 2528.460938 670.871094 2497.429688 668.28125 C 2453.890625 664.660156 2410.308594 661.238281 2366.660156 659.289062 C 2328.191406 657.558594 2289.609375 657.710938 2251.089844 657.570312 C 2234.738281 657.519531 2218.378906 659.058594 2202.019531 659.308594 C 2198.800781 659.351562 2195.53125 656.820312 2192.289062 655.480469 C 2195.628906 654.160156 2198.96875 651.730469 2202.320312 651.710938 C 2258.398438 651.480469 2314.46875 651.550781 2370.550781 651.550781 C 2370.671875 651.03125 2370.78125 650.480469 2370.910156 649.941406 Z M 2370.910156 649.941406 "/>
<path fill-rule="evenodd" fill="rgb(0%, 0%, 0%)" fill-opacity="1" d="M 1458.078125 365.011719 C 1408.671875 365.011719 1359.261719 365.308594 1309.859375 364.929688 C 1258.179688 364.53125 1206.488281 362.691406 1154.820312 362.96875 C 1111.679688 363.199219 1068.519531 364.960938 1025.429688 367.199219 C 983.675781 369.359375 942.007812 373.039062 900.289062 375.828125 C 898.074219 375.980469 895.71875 374.070312 893.425781 373.109375 C 895.410156 371.660156 897.285156 369.140625 899.402344 368.898438 C 921.300781 366.519531 943.1875 363.78125 965.164062 362.558594 C 1011.109375 360 1057.101562 356.941406 1103.089844 356.53125 C 1175.269531 355.898438 1247.460938 357.550781 1319.648438 357.75 C 1359.671875 357.851562 1399.710938 356.660156 1439.738281 356.609375 C 1472.191406 356.570312 1504.640625 357.371094 1537.089844 357.808594 C 1537.71875 357.820312 1538.449219 357.710938 1538.960938 357.988281 C 1542.261719 359.800781 1545.53125 361.710938 1548.808594 363.578125 C 1545.339844 364.839844 1541.851562 367.28125 1538.429688 367.179688 C 1511.640625 366.421875 1484.871094 365.179688 1458.089844 364.070312 C 1458.089844 364.390625 1458.089844 364.699219 1458.078125 365.011719 Z M 1458.078125 365.011719 "/>
<path fill-rule="evenodd" fill="rgb(0%, 0%, 0%)" fill-opacity="1" d="M 3215.539062 169.320312 C 3209.109375 170.730469 3202.660156 173.308594 3196.21875 173.359375 C 3175.738281 173.519531 3155.191406 173.679688 3134.808594 172.011719 C 3118.28125 170.648438 3104.71875 176.980469 3090.980469 184.019531 C 3086.25 186.449219 3081.808594 189.421875 3077.128906 191.960938 C 3063.949219 199.140625 3057.101562 196.320312 3052.390625 181.859375 C 3051.71875 179.800781 3051.289062 177.648438 3050.320312 173.839844 C 3027.839844 173.839844 3004.96875 174.359375 2982.109375 173.710938 C 2946.5 172.691406 2910.910156 169.839844 2875.300781 169.660156 C 2836.851562 169.460938 2798.390625 171.359375 2759.929688 172.460938 C 2709.53125 173.910156 2659.140625 175.808594 2608.730469 176.820312 C 2586.050781 177.269531 2563.328125 176.089844 2540.628906 175.5 C 2537.710938 175.421875 2534.808594 174.46875 2531.898438 173.921875 C 2531.789062 172.929688 2531.679688 171.941406 2531.558594 170.960938 C 2534.320312 170.238281 2537.078125 168.871094 2539.839844 168.890625 C 2580.851562 169.191406 2621.859375 170.480469 2662.851562 169.878906 C 2705.730469 169.25 2748.578125 166.730469 2791.449219 165.21875 C 2853.261719 163.039062 2915.039062 161 2976.828125 167.03125 C 3002.128906 169.5 3027.699219 169.488281 3053.160156 169.988281 C 3058.730469 170.109375 3060.199219 172.21875 3060.949219 176.871094 C 3063.050781 189.78125 3065.328125 190.53125 3076.761719 184.148438 C 3086.890625 178.488281 3097.101562 172.53125 3107.988281 168.789062 C 3116.890625 165.730469 3126.859375 164.648438 3136.359375 164.628906 C 3160.308594 164.589844 3184.261719 165.640625 3208.21875 166.28125 C 3210.53125 166.351562 3212.851562 166.589844 3215.160156 166.761719 C 3215.28125 167.609375 3215.410156 168.46875 3215.539062 169.320312 Z M 3215.539062 169.320312 "/>
<path fill-rule="evenodd" fill="rgb(0%, 0%, 0%)" fill-opacity="1" d="M 1504.050781 347.179688 C 1484.230469 347.179688 1464.421875 347.351562 1444.601562 347.140625 C 1412.480469 346.808594 1380.359375 346.570312 1348.25 345.679688 C 1296.628906 344.261719 1245.039062 341.441406 1193.410156 340.871094 C 1125.929688 340.121094 1058.410156 340.5 990.933594 341.390625 C 959.542969 341.800781 928.191406 344.609375 896.820312 346.191406 C 892.535156 346.410156 887.417969 346.710938 889.554688 338.738281 C 899.933594 338.738281 910.242188 339 920.53125 338.691406 C 980.617188 336.910156 1040.679688 334.359375 1100.769531 333.320312 C 1149.039062 332.480469 1197.359375 332.839844 1245.640625 333.699219 C 1283.441406 334.378906 1321.199219 337.109375 1358.988281 338.078125 C 1395.839844 339.03125 1432.699219 338.878906 1469.558594 339.25 C 1477.671875 339.328125 1485.859375 339.03125 1493.871094 340.058594 C 1497.929688 340.589844 1501.671875 343.660156 1505.558594 345.570312 C 1505.058594 346.121094 1504.558594 346.660156 1504.050781 347.179688 Z M 1504.050781 347.179688 "/>
<path fill-rule="evenodd" fill="rgb(0%, 0%, 0%)" fill-opacity="1" d="M 102.695312 185.789062 C 105.546875 184.519531 108.394531 182.191406 111.253906 182.171875 C 128.851562 182.050781 146.46875 183.191406 164.035156 182.539062 C 208.308594 180.898438 252.558594 178.558594 296.808594 176.480469 C 318.546875 175.46875 340.277344 174.519531 362.007812 173.421875 C 404.394531 171.28125 446.753906 168.78125 489.15625 167.03125 C 504.855469 166.378906 520.617188 167.628906 536.355469 167.609375 C 544.828125 167.609375 553.304688 166.660156 561.785156 166.300781 C 592.25 165 622.714844 163.808594 653.179688 162.511719 C 660.417969 162.199219 667.667969 161.109375 674.871094 161.351562 C 680.246094 161.53125 685.558594 163.300781 690.898438 164.359375 C 690.757812 165.699219 690.625 167.050781 690.488281 168.398438 C 686.394531 169 682.324219 169.980469 678.214844 170.148438 C 635.726562 171.859375 593.238281 173.671875 550.734375 174.949219 C 527.808594 175.640625 504.824219 174.691406 481.914062 175.660156 C 433.445312 177.710938 385.011719 180.640625 336.546875 182.988281 C 294.367188 185.03125 252.179688 187.050781 209.96875 188.558594 C 178.484375 189.679688 146.96875 190 115.460938 190.519531 C 111.53125 190.589844 107.585938 189.679688 103.652344 189.230469 C 103.335938 188.089844 103.019531 186.941406 102.695312 185.789062 Z M 102.695312 185.789062 "/>
<path fill-rule="evenodd" fill="rgb(0%, 0%, 0%)" fill-opacity="1" d="M 135.046875 752.300781 C 138.351562 751.128906 141.601562 749.230469 144.984375 748.929688 C 163.132812 747.269531 181.316406 745.839844 199.496094 744.660156 C 246.371094 741.609375 293.214844 737.910156 340.136719 736.019531 C 391.730469 733.929688 443.285156 731.96875 495.054688 735.078125 C 534.59375 737.449219 574.410156 734.910156 614.089844 735.238281 C 654.734375 735.570312 695.367188 736.738281 736.003906 737.539062 C 736.171875 738.929688 736.328125 740.328125 736.488281 741.710938 C 730.40625 742.640625 724.320312 744.410156 718.25 744.371094 C 689.886719 744.179688 661.527344 743.121094 633.164062 743.058594 C 594.429688 742.980469 555.699219 743.980469 516.964844 743.660156 C 483.90625 743.390625 450.84375 740.851562 417.808594 741.25 C 376.277344 741.75 334.746094 743.738281 293.261719 745.960938 C 242.117188 748.710938 191.011719 752.359375 139.902344 755.601562 C 138.722656 755.671875 137.546875 755.609375 136.367188 755.609375 C 135.925781 754.5 135.492188 753.398438 135.046875 752.300781 Z M 135.046875 752.300781 "/>
<path fill-rule="evenodd" fill="rgb(0%, 0%, 0%)" fill-opacity="1" d="M 701.042969 703.859375 C 695.238281 704.179688 689.421875 704.980469 683.652344 704.730469 C 625.132812 702.308594 566.621094 699.691406 508.105469 697.199219 C 459.964844 695.140625 411.832031 692.46875 363.667969 691.339844 C 310.4375 690.089844 257.175781 690.160156 203.929688 689.941406 C 190.617188 689.890625 177.292969 691.578125 164.003906 691.28125 C 152.753906 691.019531 141.515625 689.25 130.34375 687.640625 C 128.699219 687.410156 127.445312 684.429688 126.003906 682.71875 C 128.003906 681.789062 130.242188 679.75 131.957031 680.121094 C 165.804688 687.320312 199.804688 681.128906 233.714844 681.589844 C 267.097656 682.03125 300.476562 682.691406 333.859375 683.230469 C 362.863281 683.710938 391.871094 683.691406 420.859375 684.679688 C 468.113281 686.269531 515.335938 688.449219 562.566406 690.480469 C 600.589844 692.121094 638.617188 693.738281 676.617188 695.78125 C 684.820312 696.210938 692.933594 698.410156 701.089844 699.78125 C 701.066406 701.140625 701.058594 702.5 701.042969 703.859375 Z M 701.042969 703.859375 "/>
<path fill-rule="evenodd" fill="rgb(0%, 0%, 0%)" fill-opacity="1" d="M 1519.808594 154.320312 C 1511.46875 155.039062 1503.160156 156.140625 1494.800781 156.410156 C 1456.660156 157.648438 1418.519531 159.398438 1380.359375 159.589844 C 1321.070312 159.871094 1261.789062 159.070312 1202.5 158.660156 C 1167.160156 158.429688 1131.808594 157.449219 1096.480469 157.96875 C 1039.140625 158.820312 981.800781 160.648438 924.453125 161.96875 C 920.066406 162.070312 915.542969 161.878906 911.324219 160.851562 C 909.308594 160.351562 907.859375 157.539062 906.152344 155.78125 C 908.234375 154.890625 910.304688 153.25 912.398438 153.210938 C 942.894531 152.660156 973.390625 152.25 1003.890625 151.960938 C 1041.671875 151.609375 1079.460938 151.058594 1117.261719 151.171875 C 1213.789062 151.460938 1310.328125 152.398438 1406.859375 152.371094 C 1442.089844 152.359375 1477.308594 150.28125 1512.53125 149.289062 C 1515.089844 149.21875 1517.679688 150.199219 1520.25 150.691406 C 1520.109375 151.898438 1519.960938 153.109375 1519.808594 154.320312 Z M 1519.808594 154.320312 "/>
<path fill-rule="evenodd" fill="rgb(0%, 0%, 0%)" fill-opacity="1" d="M 665.226562 317.839844 C 658.347656 319.710938 651.335938 323.609375 644.625 323.148438 C 568.636719 317.941406 492.972656 326.988281 417.128906 327.890625 C 371.535156 328.429688 325.996094 332.621094 280.433594 335.210938 C 226.648438 338.269531 172.871094 341.410156 119.089844 344.390625 C 116.011719 344.558594 112.875 343.558594 109.816406 341.140625 C 294.558594 328.058594 478.96875 310.851562 664.410156 315.390625 C 664.679688 316.210938 664.949219 317.019531 665.226562 317.839844 Z M 665.226562 317.839844 "/>
<path fill-rule="evenodd" fill="rgb(0%, 0%, 0%)" fill-opacity="1" d="M 711.238281 717.429688 C 697.746094 717.558594 684.230469 718.351562 670.773438 717.710938 C 631.464844 715.828125 592.210938 712.25 552.882812 711.46875 C 516.808594 710.761719 480.675781 713.058594 444.558594 713.609375 C 423.578125 713.929688 402.574219 712.910156 381.605469 713.320312 C 344.160156 714.039062 306.714844 715.300781 269.285156 716.511719 C 230.5625 717.769531 191.84375 719.308594 153.109375 720.421875 C 150.273438 720.511719 147.355469 718.109375 144.480469 716.871094 C 147.246094 715.699219 149.964844 713.660156 152.785156 713.5 C 181.757812 711.871094 210.734375 710.160156 239.730469 709.238281 C 288.589844 707.691406 337.449219 706.351562 386.324219 705.589844 C 442.691406 704.710938 499.078125 703.851562 555.445312 704.308594 C 590.019531 704.601562 624.570312 707.328125 659.132812 709.070312 C 674.167969 709.828125 689.191406 710.78125 704.210938 711.800781 C 706.671875 711.960938 709.074219 712.839844 711.5 713.390625 C 711.414062 714.730469 711.324219 716.078125 711.238281 717.429688 Z M 711.238281 717.429688 "/>
<path fill-rule="evenodd" fill="rgb(0%, 0%, 0%)" fill-opacity="1" d="M 668.507812 494.511719 C 663.652344 495.121094 658.785156 496.378906 653.953125 496.238281 C 626.941406 495.410156 599.949219 493.410156 572.9375 493.339844 C 519.21875 493.21875 465.496094 493.820312 411.777344 494.628906 C 359.058594 495.429688 306.351562 496.929688 253.636719 497.988281 C 214.378906 498.78125 175.109375 499.359375 135.855469 500.019531 C 134.273438 500.039062 132.542969 500.371094 131.152344 499.851562 C 128.789062 498.960938 126.636719 497.5 124.402344 496.28125 C 126.835938 495.050781 129.261719 492.78125 131.703125 492.761719 C 164.429688 492.5 197.164062 493.191406 229.867188 492.378906 C 274.25 491.269531 318.597656 488.730469 362.972656 487.441406 C 391.929688 486.601562 420.921875 487 449.894531 486.679688 C 494.300781 486.179688 538.710938 485.070312 583.121094 485.160156 C 608.574219 485.21875 634.019531 487.070312 659.457031 488.339844 C 662.539062 488.5 665.542969 490.070312 668.578125 490.980469 C 668.570312 492.148438 668.539062 493.339844 668.507812 494.511719 Z M 668.507812 494.511719 "/>
<path fill-rule="evenodd" fill="rgb(0%, 0%, 0%)" fill-opacity="1" d="M 608.644531 342.21875 C 553.699219 343.03125 498.746094 343.308594 443.816406 344.808594 C 388.410156 346.328125 333.039062 349.230469 277.648438 351.238281 C 222.347656 353.25 167.046875 354.910156 110.796875 356.75 C 112.488281 347.941406 117.214844 347.199219 123.355469 347.179688 C 159.773438 347.050781 196.230469 347.460938 232.617188 346.039062 C 280.027344 344.179688 327.363281 340.320312 374.765625 338.171875 C 414.09375 336.378906 453.464844 335.328125 492.832031 334.839844 C 527.976562 334.398438 563.136719 335.101562 598.289062 335.570312 C 601.796875 335.621094 605.277344 337.550781 608.769531 338.621094 C 608.730469 339.820312 608.683594 341.019531 608.644531 342.21875 Z M 608.644531 342.21875 "/>
<path fill-rule="evenodd" fill="rgb(0%, 0%, 0%)" fill-opacity="1" d="M 646.453125 663.371094 C 640.769531 673.558594 632.609375 671.480469 626.246094 671.589844 C 592.535156 672.199219 558.8125 672.46875 525.097656 672.058594 C 496.769531 671.699219 468.445312 669.691406 440.113281 669.421875 C 411.554688 669.148438 382.980469 670.429688 354.414062 670.480469 C 294.335938 670.601562 234.261719 670.480469 174.183594 670.148438 C 163.1875 670.089844 152.167969 668.828125 141.246094 667.480469 C 138.621094 667.160156 136.320312 664.230469 133.871094 662.511719 C 136.503906 661.890625 139.160156 660.660156 141.773438 660.75 C 166.351562 661.621094 190.925781 663.511719 215.503906 663.589844 C 274.457031 663.78125 333.402344 662.929688 392.355469 662.910156 C 435.363281 662.890625 478.382812 663.679688 521.390625 663.78125 C 557.035156 663.890625 592.683594 663.53125 628.328125 663.378906 C 633.820312 663.359375 639.3125 663.371094 646.453125 663.371094 Z M 646.453125 663.371094 "/>
<path fill-rule="evenodd" fill="rgb(0%, 0%, 0%)" fill-opacity="1" d="M 2029.960938 158.089844 C 2021.171875 158.089844 2012.371094 158.050781 2003.578125 158.089844 C 1982.738281 158.191406 1961.898438 158.421875 1941.058594 158.441406 C 1883 158.488281 1824.949219 158.589844 1766.898438 158.421875 C 1729.710938 158.300781 1692.519531 157.46875 1655.328125 157.488281 C 1641.839844 157.488281 1628.351562 159.230469 1614.839844 159.609375 C 1612.5 159.679688 1610.058594 156.960938 1607.671875 155.53125 C 1610.089844 154.128906 1612.488281 151.539062 1614.941406 151.5 C 1656.539062 150.628906 1698.140625 149.410156 1739.730469 149.648438 C 1779.089844 149.878906 1818.449219 152.828125 1857.808594 152.589844 C 1909.511719 152.261719 1961.199219 149.78125 2012.910156 148.820312 C 2018.78125 148.710938 2024.730469 152.410156 2030.648438 154.351562 C 2030.421875 155.601562 2030.179688 156.839844 2029.960938 158.089844 Z M 2029.960938 158.089844 "/>
<path fill-rule="evenodd" fill="rgb(0%, 0%, 0%)" fill-opacity="1" d="M 2501.179688 372.660156 C 2494.269531 373.660156 2487.320312 375.691406 2480.429688 375.488281 C 2440.46875 374.359375 2400.53125 372.289062 2360.550781 371.328125 C 2309.53125 370.089844 2258.46875 369.839844 2207.441406 368.691406 C 2178.820312 368.050781 2150.210938 366.660156 2121.628906 365.070312 C 2116.859375 364.808594 2107.808594 366.050781 2109.300781 358.089844 C 2110.648438 350.921875 2118.039062 355.75 2122.929688 356.121094 C 2142.039062 357.621094 2161.140625 359.898438 2180.28125 360.28125 C 2236.269531 361.398438 2292.289062 361.261719 2348.269531 362.519531 C 2397.339844 363.628906 2446.390625 365.929688 2495.441406 367.789062 C 2497.359375 367.859375 2499.25 368.808594 2501.160156 369.351562 C 2501.171875 370.460938 2501.179688 371.558594 2501.179688 372.660156 Z M 2501.179688 372.660156 "/>
<path fill-rule="evenodd" fill="rgb(0%, 0%, 0%)" fill-opacity="1" d="M 2521.890625 361.339844 C 2517.058594 361.820312 2512.011719 363.429688 2507.410156 362.589844 C 2465.441406 354.890625 2423.199219 351.671875 2380.519531 351.570312 C 2346.03125 351.5 2311.511719 349.960938 2277.078125 347.851562 C 2242.21875 345.710938 2207.46875 341.941406 2172.648438 339.179688 C 2161.339844 338.28125 2149.960938 338.519531 2138.648438 337.710938 C 2136.199219 337.53125 2133.910156 335.160156 2131.550781 333.800781 C 2134.109375 332.390625 2136.78125 329.609375 2139.230469 329.769531 C 2176.019531 332.25 2212.78125 335.238281 2249.558594 337.871094 C 2266.859375 339.101562 2284.191406 340.089844 2301.53125 340.691406 C 2342.828125 342.160156 2384.179688 342.578125 2425.429688 344.890625 C 2452.789062 346.429688 2480.019531 350.351562 2507.269531 353.578125 C 2512.359375 354.179688 2517.230469 356.519531 2522.199219 358.058594 C 2522.089844 359.160156 2521.988281 360.238281 2521.890625 361.339844 Z M 2521.890625 361.339844 "/>
<path fill-rule="evenodd" fill="rgb(0%, 0%, 0%)" fill-opacity="1" d="M 2770.730469 707.300781 C 2774.71875 706.550781 2778.699219 705.179688 2782.699219 705.148438 C 2812.769531 704.941406 2842.839844 704.96875 2872.898438 704.988281 C 2914.371094 705.03125 2955.871094 704.238281 2997.308594 705.480469 C 3040.660156 706.769531 3083.949219 710.851562 3127.308594 712.128906 C 3153.660156 712.910156 3180.109375 710.660156 3206.519531 709.898438 C 3209.46875 709.808594 3212.699219 710.058594 3215.308594 711.238281 C 3216.410156 711.730469 3217.191406 715.648438 3216.390625 716.960938 C 3215.398438 718.601562 3212.601562 720.070312 3210.628906 720.03125 C 3176.609375 719.210938 3142.609375 718.378906 3108.609375 717.089844 C 3070.828125 715.640625 3033.070312 712.589844 2995.289062 712.230469 C 2926.550781 711.570312 2857.78125 712.390625 2789.019531 712.550781 C 2784.289062 712.558594 2779.558594 712.320312 2774.839844 712.050781 C 2773.691406 711.988281 2772.589844 711.339844 2771.460938 710.960938 C 2771.21875 709.738281 2770.96875 708.519531 2770.730469 707.300781 Z M 2770.730469 707.300781 "/>
<path fill-rule="evenodd" fill="rgb(0%, 0%, 0%)" fill-opacity="1" d="M 2195.71875 152.191406 C 2238.558594 153.390625 2281.398438 154.699219 2324.25 155.738281 C 2353.109375 156.441406 2382 156.660156 2410.859375 157.429688 C 2413.109375 157.488281 2417.058594 160.121094 2417.179688 161.769531 C 2417.539062 166.960938 2413.941406 167.691406 2409.128906 167.488281 C 2366.441406 165.640625 2323.75 163.320312 2281.058594 162.640625 C 2230.058594 161.839844 2179.039062 162.511719 2128.039062 162.558594 C 2126.460938 162.558594 2124.539062 163.308594 2123.390625 162.648438 C 2120.941406 161.261719 2118.898438 159.171875 2116.691406 157.359375 C 2119.089844 155.789062 2121.460938 152.890625 2123.859375 152.859375 C 2143.710938 152.648438 2163.558594 152.96875 2183.410156 153.121094 C 2187.5 153.140625 2191.601562 153.121094 2195.691406 153.121094 C 2195.699219 152.808594 2195.710938 152.5 2195.71875 152.191406 Z M 2195.71875 152.191406 "/>
<path fill-rule="evenodd" fill="rgb(0%, 0%, 0%)" fill-opacity="1" d="M 3166.980469 741.730469 C 3157.949219 742.859375 3148.789062 745.539062 3139.910156 744.820312 C 3114.269531 742.75 3088.761719 739.050781 3063.160156 736.46875 C 3036.890625 733.839844 3010.609375 731.019531 2984.25 729.640625 C 2938.660156 727.269531 2893.050781 725.140625 2847.410156 724.5 C 2822.359375 724.148438 2797.261719 727.050781 2772.179688 728.519531 C 2768.820312 728.710938 2765.46875 729.089844 2762.109375 729.390625 C 2761.699219 728.308594 2761.289062 727.21875 2760.890625 726.121094 C 2763.910156 724.871094 2766.890625 722.648438 2769.960938 722.519531 C 2804.539062 720.988281 2839.160156 718.53125 2873.738281 718.828125 C 2911.128906 719.160156 2948.550781 721.390625 2985.851562 724.230469 C 3027.53125 727.390625 3069.058594 732.449219 3110.71875 736.058594 C 3126.390625 737.421875 3142.230469 736.96875 3157.980469 737.460938 C 3160.929688 737.550781 3163.871094 738.210938 3166.808594 738.621094 C 3166.859375 739.648438 3166.929688 740.679688 3166.980469 741.730469 Z M 3166.980469 741.730469 "/>
<path fill-rule="evenodd" fill="rgb(0%, 0%, 0%)" fill-opacity="1" d="M 2105.730469 668.570312 C 2107.828125 665.550781 2109.46875 661.988281 2112.160156 659.640625 C 2114.660156 657.480469 2118.570312 657.011719 2121.359375 655.078125 C 2131.628906 648.019531 2140.371094 644.269531 2151.089844 656.25 C 2158.960938 665.058594 2171.890625 665.609375 2183.679688 665.800781 C 2185.210938 665.820312 2186.761719 665.75 2188.261719 665.941406 C 2188.710938 666 2189.070312 666.808594 2189.449219 667.269531 C 2182.359375 673.230469 2160.078125 674.570312 2151.5 666.191406 C 2136.179688 651.199219 2124.519531 660.691406 2111.769531 668.609375 C 2110.601562 669.351562 2109.308594 669.929688 2108.078125 670.570312 C 2107.300781 669.910156 2106.519531 669.25 2105.730469 668.570312 Z M 2105.730469 668.570312 "/>
<path fill-rule="evenodd" fill="rgb(0%, 0%, 0%)" fill-opacity="1" d="M 1510.769531 647.671875 C 1481.441406 647.671875 1454.269531 647.671875 1424.570312 647.671875 C 1426.839844 645.109375 1428.691406 641.269531 1430.429688 641.320312 C 1456.160156 641.980469 1481.878906 643.140625 1507.601562 644.25 C 1508.019531 644.269531 1508.410156 645.070312 1510.769531 647.671875 Z M 1510.769531 647.671875 "/>
<path fill-rule="evenodd" fill="rgb(0%, 0%, 0%)" fill-opacity="1" d="M 2121.230469 338.761719 C 2103.390625 338.761719 2085.558594 338.890625 2067.730469 338.570312 C 2065.808594 338.539062 2063.929688 335.828125 2062.019531 334.359375 C 2064.078125 332.851562 2066.210938 329.921875 2068.179688 330.03125 C 2086.039062 331.019531 2103.859375 332.550781 2121.699219 333.910156 C 2121.539062 335.53125 2121.390625 337.140625 2121.230469 338.761719 Z M 2121.230469 338.761719 "/>
<path fill-rule="evenodd" fill="rgb(0%, 0%, 0%)" fill-opacity="1" d="M 1607.410156 352.578125 C 1588.628906 351.71875 1569.839844 350.960938 1551.070312 349.871094 C 1549.191406 349.761719 1547.429688 347.71875 1545.609375 346.578125 C 1547.5 345.308594 1549.460938 342.859375 1551.269531 342.960938 C 1561.929688 343.589844 1572.578125 344.589844 1583.171875 345.910156 C 1591.410156 346.929688 1599.589844 348.621094 1607.789062 350.019531 C 1607.660156 350.859375 1607.53125 351.71875 1607.410156 352.578125 Z M 1607.410156 352.578125 "/>
<path fill-rule="evenodd" fill="rgb(0%, 0%, 0%)" fill-opacity="1" d="M 1584.960938 155.839844 C 1571.308594 164.128906 1558.171875 156.511719 1545.230469 158.789062 C 1546.960938 149.941406 1567.160156 148.671875 1584.960938 155.839844 Z M 1584.960938 155.839844 "/>
<path fill-rule="evenodd" fill="rgb(0%, 0%, 0%)" fill-opacity="1" d="M 1600.96875 374.75 C 1592.019531 374.75 1583.039062 375 1574.109375 374.570312 C 1571.980469 374.460938 1569.949219 372.070312 1567.878906 370.730469 C 1569.820312 369.109375 1571.890625 365.96875 1573.660156 366.128906 C 1583.050781 367 1592.359375 368.691406 1601.710938 370.089844 C 1601.460938 371.640625 1601.210938 373.199219 1600.96875 374.75 Z M 1600.96875 374.75 "/>
<path fill-rule="evenodd" fill="rgb(0%, 0%, 0%)" fill-opacity="1" d="M 2084.789062 366.859375 C 2074.679688 368.03125 2064.601562 369.511719 2054.46875 370.109375 C 2052.398438 370.230469 2050.148438 367 2047.980469 365.320312 C 2049.839844 363.648438 2051.859375 360.390625 2053.53125 360.570312 C 2064.019531 361.679688 2074.449219 363.539062 2084.878906 365.160156 C 2084.851562 365.730469 2084.820312 366.300781 2084.789062 366.859375 Z M 2084.789062 366.859375 "/>
<path fill-rule="evenodd" fill="rgb(0%, 0%, 0%)" fill-opacity="1" d="M 2089.730469 162.578125 C 2080.769531 163.230469 2071.808594 164.179688 2062.859375 164.210938 C 2061.289062 164.21875 2058.859375 160.460938 2058.46875 158.160156 C 2058.28125 156.980469 2061.921875 153.699219 2063.449219 153.910156 C 2072.238281 155.160156 2080.929688 157.179688 2089.648438 158.929688 C 2089.671875 160.148438 2089.699219 161.359375 2089.730469 162.578125 Z M 2089.730469 162.578125 "/>
<path fill-rule="evenodd" fill="rgb(0%, 0%, 0%)" fill-opacity="1" d="M 1977.839844 399.539062 C 1976.871094 395.210938 1975.390625 390.898438 1975.238281 386.539062 C 1975.191406 385.109375 1978.589844 383.558594 1980.410156 382.070312 C 1981.839844 384.519531 1984.558594 387.089844 1984.359375 389.398438 C 1984.070312 392.71875 1981.660156 395.871094 1980.140625 399.109375 C 1979.390625 399.25 1978.609375 399.390625 1977.839844 399.539062 Z M 1977.839844 399.539062 "/>
<path fill-rule="evenodd" fill="rgb(0%, 0%, 0%)" fill-opacity="1" d="M 2033.441406 1429.207031 C 2020.109375 1429.207031 2006.789062 1429.207031 1993.460938 1429.207031 C 1993.449219 1428.984375 1993.449219 1428.75 1993.441406 1428.527344 C 2006.78125 1428.527344 2020.101562 1428.527344 2033.441406 1428.527344 C 2033.441406 1428.75 2033.441406 1428.984375 2033.441406 1429.207031 Z M 2033.441406 1429.207031 "/>
</svg>
