<svg width="66" height="40" viewBox="0 0 66 40" fill="none" xmlns="http://www.w3.org/2000/svg">
<path d="M27.152 32.536C27.1307 32.664 27.0027 32.696 26.768 32.632C26.5547 32.5893 26.3627 32.44 26.192 32.184C26.0213 31.7787 25.936 31.4053 25.936 31.064C25.936 30.7227 25.9467 30.2107 25.968 29.528C26.096 28.7813 26.2667 27.8107 26.48 26.616C26.7147 25.4 26.9813 24.0453 27.28 22.552C27.6 21.0373 27.9413 19.4587 28.304 17.816C28.56 16.9627 28.7627 16.184 28.912 15.48C29.0827 14.7547 29.2107 14.168 29.296 13.72C29.3813 13.272 29.424 13.048 29.424 13.048C29.424 12.984 29.36 13.016 29.232 13.144C29.1253 13.2507 29.0187 13.3787 28.912 13.528C28.8053 13.6773 28.7627 13.7947 28.784 13.88C28.784 13.88 28.7093 13.9867 28.56 14.2C28.4107 14.4133 28.2187 14.7013 27.984 15.064C27.7707 15.2773 27.5147 15.704 27.216 16.344C26.9173 16.984 26.5867 17.5813 26.224 18.136C25.8827 18.776 25.52 19.4693 25.136 20.216C24.752 20.9413 24.4107 21.5493 24.112 22.04C23.92 22.3173 23.728 22.6373 23.536 23C23.344 23.3627 23.2267 23.5973 23.184 23.704C23.0987 23.9387 22.9493 24.2267 22.736 24.568C22.5227 24.888 22.288 25.208 22.032 25.528C21.904 25.72 21.776 25.9227 21.648 26.136C21.52 26.328 21.4133 26.4987 21.328 26.648C21.264 26.776 21.232 26.84 21.232 26.84C21.232 26.904 21.1253 27.096 20.912 27.416C20.72 27.736 20.4747 28.088 20.176 28.472C19.8987 28.856 19.632 29.1867 19.376 29.464C18.6293 30.2533 18.032 30.7227 17.584 30.872C17.136 31 16.6347 30.808 16.08 30.296C15.8027 29.9547 15.6 29.5707 15.472 29.144C15.344 28.696 15.2907 28.152 15.312 27.512C15.3333 26.8507 15.408 26.0293 15.536 25.048C15.6853 24.3013 15.824 23.5547 15.952 22.808C16.08 22.04 16.1973 21.3253 16.304 20.664C16.432 19.9813 16.5387 19.4053 16.624 18.936C16.7307 18.4667 16.816 18.1573 16.88 18.008C16.9227 17.5813 16.912 17.3467 16.848 17.304C16.784 17.2613 16.656 17.3893 16.464 17.688C16.3787 17.8373 16.1547 18.2107 15.792 18.808C15.4293 19.384 15.0027 20.0987 14.512 20.952C14.0427 21.8053 13.5733 22.7333 13.104 23.736C12.2293 25.3573 11.504 26.7013 10.928 27.768C10.3733 28.8133 9.92533 29.6453 9.584 30.264C9.264 30.8827 9.02933 31.3413 8.88 31.64C8.73067 31.9387 8.624 32.1413 8.56 32.248C8.496 32.3547 8.44267 32.4293 8.4 32.472C8.208 32.472 8.00533 32.3867 7.792 32.216C7.6 32.0667 7.39733 31.8853 7.184 31.672C7.12 31.5227 7.088 31.3733 7.088 31.224C7.10933 31.0747 7.184 30.8613 7.312 30.584C7.44 30.2853 7.632 29.8373 7.888 29.24C8.16533 28.6853 8.42133 28.2053 8.656 27.8C8.89067 27.3733 9.072 27.1173 9.2 27.032C9.30667 26.8613 9.40267 26.6907 9.488 26.52C9.57333 26.3493 9.62667 26.1467 9.648 25.912C9.75467 25.784 9.91467 25.528 10.128 25.144C10.3627 24.7387 10.5973 24.3013 10.832 23.832C11.0027 23.5547 11.216 23.192 11.472 22.744C11.7493 22.296 12.0373 21.8053 12.336 21.272C12.6347 20.7173 12.9013 20.1947 13.136 19.704C14.1173 18.0187 14.9493 16.6 15.632 15.448C16.3147 14.2747 16.8267 13.528 17.168 13.208C17.2747 13.1013 17.3813 12.952 17.488 12.76C17.616 12.568 17.68 12.3973 17.68 12.248C17.68 11.8 17.7653 11.3947 17.936 11.032C18.128 10.648 18.32 10.4773 18.512 10.52C18.7253 10.52 18.9173 10.5413 19.088 10.584C19.2587 10.6267 19.44 10.7653 19.632 11C19.8027 11.256 19.952 11.512 20.08 11.768C20.208 12.024 20.1973 12.536 20.048 13.304C20.048 13.6027 20.016 13.944 19.952 14.328C19.888 14.6907 19.824 15.032 19.76 15.352C19.7173 15.6507 19.6853 15.8853 19.664 16.056C19.3867 16.888 19.1307 17.8267 18.896 18.872C18.6613 19.896 18.448 20.9413 18.256 22.008C18.064 23.0533 17.904 24.0347 17.776 24.952C17.648 25.848 17.5627 26.5947 17.52 27.192C17.4987 27.768 17.52 28.0987 17.584 28.184C17.7333 28.2693 17.8613 28.28 17.968 28.216C18.0747 28.152 18.256 27.8747 18.512 27.384C18.6613 27.128 18.864 26.8187 19.12 26.456C19.3973 26.072 19.664 25.72 19.92 25.4C20.0907 25.1013 20.3573 24.6533 20.72 24.056C21.0827 23.4587 21.5413 22.6907 22.096 21.752C22.672 20.8133 23.3547 19.672 24.144 18.328C24.9547 16.9627 25.872 15.384 26.896 13.592C27.3867 12.8453 27.8453 12.12 28.272 11.416C28.72 10.6907 29.0827 10.2213 29.36 10.008C29.6587 9.73067 29.968 9.66667 30.288 9.816C30.608 9.944 30.8853 10.2213 31.12 10.648C31.376 11.0747 31.5147 11.608 31.536 12.248C31.5573 12.5467 31.5147 13.0267 31.408 13.688C31.3227 14.3493 31.184 15.1067 30.992 15.96C30.8 16.792 30.5547 17.656 30.256 18.552C30.192 18.9147 30.0853 19.3733 29.936 19.928C29.808 20.4613 29.6587 21.016 29.488 21.592C29.3173 22.168 29.1467 22.712 28.976 23.224C28.8693 23.928 28.7413 24.6213 28.592 25.304C28.464 25.9867 28.4213 26.4453 28.464 26.68C28.272 27.0213 28.144 27.512 28.08 28.152C28.016 28.792 27.984 29.4533 27.984 30.136C27.8987 30.968 27.8347 31.5547 27.792 31.896C27.7493 32.2373 27.6747 32.3973 27.568 32.376C27.2907 32.2907 27.152 32.344 27.152 32.536ZM32.9183 32.632C32.7263 32.5467 32.5023 32.376 32.2463 32.12C31.7983 31.8213 31.4569 31.48 31.2223 31.096C30.9876 30.7333 30.8489 30.2107 30.8063 29.528C30.8063 29.4213 30.9023 29.2507 31.0943 29.016C31.2863 28.76 31.5316 28.5573 31.8303 28.408C32.1289 28.2587 32.4383 28.3013 32.7583 28.536C32.6089 28.984 32.5129 29.3573 32.4703 29.656C32.4489 29.9547 32.5343 30.2 32.7263 30.392C32.9183 30.5627 33.2916 30.712 33.8463 30.84C34.2089 30.9253 34.5503 30.9573 34.8703 30.936C35.2116 30.9147 35.6169 30.8613 36.0863 30.776C36.5769 30.7333 37.0036 30.6907 37.3663 30.648C37.7503 30.6053 38.0169 30.5093 38.1663 30.36C38.7636 30.1253 39.3076 29.8267 39.7983 29.464C40.3103 29.1013 40.6516 28.7387 40.8223 28.376C41.0783 28.0347 41.2169 27.768 41.2383 27.576C41.2596 27.384 41.2703 27.0533 41.2703 26.584C41.2489 26.136 41.2169 25.7947 41.1743 25.56C41.1529 25.304 41.0783 25.0267 40.9503 24.728C40.8223 24.408 40.5983 23.928 40.2783 23.288C40.2783 23.16 40.1183 22.9147 39.7983 22.552C39.4783 22.1893 39.1689 21.8373 38.8703 21.496C38.7209 21.1547 38.5289 20.7707 38.2943 20.344C38.0809 19.9173 37.8249 19.608 37.5263 19.416C37.4409 19.288 37.3556 19.096 37.2703 18.84C37.1849 18.584 37.1103 18.4453 37.0463 18.424C37.0463 18.424 37.0143 18.3707 36.9503 18.264C36.9076 18.1573 36.8543 18.0293 36.7903 17.88C36.4916 17.24 36.4596 16.4613 36.6943 15.544C36.9289 14.6267 37.3983 13.7627 38.1023 12.952C38.2729 12.6747 38.5289 12.3547 38.8703 11.992C39.2329 11.608 39.5743 11.2773 39.8943 11C40.2356 10.7227 40.4489 10.584 40.5343 10.584C40.5343 10.584 40.5983 10.5627 40.7263 10.52C40.8756 10.456 41.0569 10.3493 41.2703 10.2C41.5263 10.136 41.7929 10.04 42.0703 9.912C42.3689 9.784 42.6569 9.72 42.9343 9.72C43.3183 9.592 43.6063 9.50667 43.7983 9.464C43.9903 9.4 44.1823 9.37867 44.3743 9.4C44.5663 9.4 44.8649 9.42133 45.2703 9.464C45.8249 9.61333 46.2623 9.82667 46.5823 10.104C46.9023 10.36 47.1263 10.7013 47.2543 11.128L47.4783 12.504L46.1343 13.496C45.8783 13.5813 45.5903 13.624 45.2703 13.624C44.9503 13.624 44.6729 13.6133 44.4383 13.592C44.2249 13.5493 44.1183 13.528 44.1183 13.528C43.9903 13.528 43.9369 13.464 43.9583 13.336C43.9796 13.208 44.0649 13.144 44.2143 13.144C44.2783 13.1013 44.3636 13.0053 44.4703 12.856C44.5983 12.7067 44.7689 12.536 44.9823 12.344C45.2169 11.9387 45.2703 11.6933 45.1423 11.608C45.0356 11.5013 44.6089 11.4907 43.8623 11.576C43.1369 11.5973 42.4223 11.7893 41.7183 12.152C41.0356 12.4933 40.4596 13.0053 39.9903 13.688C39.4356 14.1573 39.0409 14.6373 38.8063 15.128C38.5716 15.6187 38.4543 16.0453 38.4543 16.408C38.4969 16.5573 38.5609 16.7707 38.6463 17.048C38.7316 17.304 38.8489 17.5813 38.9983 17.88C39.8943 19.1387 40.5449 20.024 40.9503 20.536C41.3556 21.048 41.5583 21.3573 41.5583 21.464C41.5583 21.5493 41.5583 21.6027 41.5583 21.624C41.5796 21.624 41.6649 21.7627 41.8143 22.04C41.9849 22.3173 42.1449 22.616 42.2943 22.936C42.4436 23.2347 42.5183 23.4267 42.5183 23.512C42.5183 23.512 42.5396 23.576 42.5823 23.704C42.6463 23.8107 42.7209 23.9707 42.8063 24.184C42.8916 24.248 42.9663 24.4933 43.0303 24.92C43.0943 25.3467 43.1476 25.7947 43.1903 26.264C43.2543 26.7333 43.2863 27.096 43.2863 27.352C43.2863 27.608 43.2223 27.8853 43.0943 28.184C42.9663 28.4613 42.8063 28.7387 42.6143 29.016C42.4223 29.2933 42.2089 29.56 41.9743 29.816C41.7396 30.072 41.3769 30.392 40.8863 30.776C40.3956 31.1387 39.8729 31.48 39.3183 31.8C38.7849 32.1413 38.2836 32.3653 37.8142 32.472C37.4943 32.6 37.0783 32.696 36.5663 32.76C36.0756 32.8453 35.5636 32.8987 35.0303 32.92C34.5183 32.9413 34.0596 32.92 33.6543 32.856C33.2703 32.8133 33.0249 32.7387 32.9183 32.632Z" fill="black"/>
<ellipse cx="57" cy="7.5" rx="4" ry="3.5" fill="#006AF4"/>
</svg>
